<?xml version="1.0" standalone="no"?>
<!DOCTYPE svg PUBLIC "-//W3C//DTD SVG 1.1//EN" "http://www.w3.org/Graphics/SVG/1.1/DTD/svg11.dtd" >
<!--
2013-9-30: Created.
-->
<svg>
<metadata>
Created by iconfont
</metadata>
<defs>

<font id="iconfont" horiz-adv-x="1024" >
  <font-face
    font-family="iconfont"
    font-weight="500"
    font-stretch="normal"
    units-per-em="1024"
    ascent="896"
    descent="-128"
  />
    <missing-glyph />
    
    <glyph glyph-name="x" unicode="x" horiz-adv-x="1001"
d="M281 543q-27 -1 -53 -1h-83q-18 0 -36.5 -6t-32.5 -18.5t-23 -32t-9 -45.5v-76h912v41q0 16 -0.5 30t-0.5 18q0 13 -5 29t-17 29.5t-31.5 22.5t-49.5 9h-133v-97h-438v97zM955 310v-52q0 -23 0.5 -52t0.5 -58t-10.5 -47.5t-26 -30t-33 -16t-31.5 -4.5q-14 -1 -29.5 -0.5
t-29.5 0.5h-32l-45 128h-439l-44 -128h-29h-34q-20 0 -45 1q-25 0 -41 9.5t-25.5 23t-13.5 29.5t-4 30v167h911zM163 247q-12 0 -21 -8.5t-9 -21.5t9 -21.5t21 -8.5q13 0 22 8.5t9 21.5t-9 21.5t-22 8.5zM316 123q-8 -26 -14 -48q-5 -19 -10.5 -37t-7.5 -25t-3 -15t1 -14.5
t9.5 -10.5t21.5 -4h37h67h81h80h64h36q23 0 34 12t2 38q-5 13 -9.5 30.5t-9.5 34.5q-5 19 -11 39h-368zM336 498v228q0 11 2.5 23t10 21.5t20.5 15.5t34 6h188q31 0 51.5 -14.5t20.5 -52.5v-227h-327z" />
    

    
    <glyph glyph-name="img" unicode="&#58943;" d="M914.286 690.286h-804.571c-40.393 0-73.143-32.75-73.143-73.143v-658.286c0-40.393 32.75-73.143 73.143-73.143h804.571c40.393 0 73.143 32.75 73.143 73.143l-0 658.286c0 40.393-32.75 73.143-73.143 73.143zM914.286-41.143h-804.571v658.286h804.571l-0-658.286zM292.571 361.143c40.393 0 73.143 32.75 73.143 73.143 0 40.411-32.75 73.143-73.143 73.143-40.357 0-73.143-32.731-73.143-73.143-0-40.393 32.786-73.143 73.143-73.143zM658.286 397.714l-216.75-298.875-112.393 152.589-182.857-256h731.429z"  horiz-adv-x="1024" />

    
    <glyph glyph-name="iconfontyingyong" unicode="&#58914;" d="M371.732817 717.827686q25.773475 0 44.112294-17.843175t18.338819-43.616651l0-247.821878q0-25.773475-18.338819-44.112294t-44.112294-18.338819l-247.821878 0q-25.773475 0-43.616651 18.338819t-17.843175 44.112294l0 247.821878q0 25.773475 17.843175 43.616651t43.616651 17.843175l247.821878 0zM371.732817 222.18393q25.773475 0 44.112294-17.843175t18.338819-43.616651l0-248.813166q0-25.773475-18.338819-43.616651t-44.112294-17.843175l-247.821878 0q-25.773475 0-43.616651 17.843175t-17.843175 43.616651l0 248.813166q0 25.773475 17.843175 43.616651t43.616651 17.843175l247.821878 0zM868.367861 222.18393q25.773475 0 43.616651-17.843175t17.843175-43.616651l0-248.813166q0-25.773475-17.843175-43.616651t-43.616651-17.843175l-247.821878 0q-25.773475 0-44.112294 17.843175t-18.338819 43.616651l0 248.813166q0 25.773475 18.338819 43.616651t44.112294 17.843175l247.821878 0zM1006.156825 608.78606q19.82575-19.82575 19.82575-46.590513t-19.82575-45.599226l-184.379477-184.379477q-19.82575-19.82575-46.094869-19.82575t-46.094869 19.82575l-184.379477 184.379477q-18.834463 18.834463-18.834463 45.599226t18.834463 46.590513l184.379477 184.379477q19.82575 18.834463 46.094869 18.834463t46.094869-18.834463z"  horiz-adv-x="1026" />

    
    <glyph glyph-name="qq" unicode="&#58989;" d="M873.472 27.52c-12.608-1.6-39.36 24-59.648 74.112-13.888-53.76-40.896-99.136-76.992-134.528 43.776-11.648 73.472-34.112 73.472-60.032 0-37.888-63.36-68.48-141.504-68.48-58.624 0-109.12 17.344-130.432 42.112-8.896-0.768-17.856-1.152-26.88-1.152-10.496 0-20.864 0.64-31.104 1.472-21.12-24.896-71.744-42.496-130.816-42.496-78.080 0-141.376 30.656-141.376 68.48 0 26.88 32.064 50.112 78.784 61.376-36.032 35.52-63.040 80.64-77.056 133.504-20.224-50.496-47.040-76.48-59.584-74.88-16.256 2.112-32.512 52.224-23.552 128 5.952 50.752 34.112 112.832 62.4 133.376-0.128 5.76 0 11.712 0.704 17.792 5.312 47.232 12.992 88.96 32.704 93.12-3.392 17.216-5.248 34.88-5.248 52.864 0 157.504 136.768 285.184 294.208 285.184 157.44 0 294.208-127.68 294.208-285.184 0-18.176-1.856-35.968-5.376-53.184 0.128 0 0.256 0.064 0.384 0.064 16.256-1.088 30.4-43.136 35.904-93.184 0.768-6.592 0.896-12.928 0.64-19.136 27.52-22.592 54.144-82.24 59.904-131.2 8.896-75.776-7.488-126.016-23.744-128z"  horiz-adv-x="1024" />

    
    <glyph glyph-name="jwj_tianjiahaoyou" unicode="&#59215;" d="M918.338106 135.41293h-65.729342v65.730366c0 21.773945-17.665094 39.438015-39.439039 39.438015-21.772921 0-39.438015-17.66407-39.438015-39.438015v-65.730366h-65.729342c-21.772921 0-39.438015-17.66407-39.438015-39.438015 0-21.771898 17.665094-39.438015 39.438015-39.438015h65.729342v-65.728319c0-21.773945 17.665094-39.440063 39.438015-39.440062 21.773945 0 39.439039 17.666117 39.439039 39.440062v65.728319h65.729342c21.772921 0 39.438015 17.666117 39.438015 39.438015-0.001024 21.773945-17.666117 39.438015-39.438015 39.438015z m-309.745788 204.987985c68.03718 47.52159 112.556738 126.397619 112.556737 215.683492 0 145.208441-117.724287 262.918393-262.919417 262.918393S195.310221 701.292847 195.310221 556.084407c0-89.285872 44.518534-168.161902 112.555714-215.683492C165.236661 278.689299 64.695218 136.779817 63.87099 5.579151c-0.005119-0.255971-0.019454-0.508871-0.019453-0.765866 0-0.09215 0.006143-0.183275 0.007167-0.275425 0-0.194538-0.007167-0.3901-0.007167-0.584639h0.021501c0.458701-21.375654 17.93028-38.577951 39.41549-38.577951 21.484186 0 38.956789 17.202297 39.415489 38.577951h0.021502c0 130.689747 155.774937 289.211768 315.503095 289.211769 74.816325 0 148.764394-34.780361 206.244293-85.188283l61.80479 55.624618c-34.166029 31.392324-73.940903 57.87307-117.685379 76.79959z m-150.36268 31.640104c-101.649287 0-184.043387 82.393076-184.043387 184.043388 0 101.649287 82.3941 184.043387 184.043387 184.043387 101.650311 0 184.043387-82.3941 184.043387-184.043387 0-101.650311-82.393076-184.043387-184.043387-184.043388z"  horiz-adv-x="1024" />

    
    <glyph glyph-name="_" unicode="&#58937;" d="M307.220322-127.70715c-12.59257 0-25.185141 4.832033-35.068844 14.642524a55.897834 55.897834 0 0 0-2.159773 76.141123l376.129827 421.118981L269.991705 805.277852A55.897834 55.897834 0 0 0 272.151478 881.418975 49.345305 49.345305 0 0 0 344.448938 879.112777l409.148718-458.01814a55.897834 55.897834 0 0 0 0-73.834925L344.448938-110.758428a49.711368 49.711368 0 0 0-37.228616-16.948722z"  horiz-adv-x="1024" />

    
    <glyph glyph-name="ok" unicode="&#58938;" d="M542.762667-127.914667l-0.384 0.384-0.341334-0.384L0 443.008 94.037333 537.344 542.378667 106.666667 1363.968 895.957333l87.04-95.488-908.245333-928.384z"  horiz-adv-x="1451" />

    
    <glyph glyph-name="tip" unicode="&#58939;" d="M810.666667 896v-1024l-298.666667 256-298.666667-256V896h597.333334z"  horiz-adv-x="1024" />

    
    <glyph glyph-name="secrch" unicode="&#58940;" d="M1008.427479-36.671578l-227.06842 227.410047a52.667575 52.667575 0 0 1-16.597403 11.273708 426.550418 426.550418 0 0 1 92.239428 265.586922C857.001084 704.204621 665.148767 896 428.514777 896 191.852317 896 0 704.204621 0 467.599099s191.852317-428.42937 428.514777-428.42937c100.41002 0 192.763324 34.561317 265.814673 92.410243 2.590675-6.00695 6.348578-11.643804 11.245239-16.568935l227.06842-227.381578a53.578582 53.578582 0 0 1 75.78437 75.698963z m-579.912702 182.941533c-177.475493 0-321.386082 143.882121-321.386083 321.300675 0 177.447024 143.882121 321.329145 321.386083 321.329145 177.475493 0 321.357614-143.882121 321.357613-321.329145 0-177.418555-143.882121-321.300676-321.357613-321.300675z"  horiz-adv-x="1024" />

    
    <glyph glyph-name="vip" unicode="&#58942;" d="M947.2-128H315.733333L96.085333 441.890133C42.325333 446.976 0 495.2064 0 554.666667c0 62.839467 47.104 113.7664 105.233067 113.7664 58.129067 0 105.2672-50.926933 105.2672-113.7664 0-24.132267-7.0656-46.421333-18.944-64.853334 37.1712-63.453867 102.126933-105.813333 176.776533-105.813333 97.9968 0 179.575467 72.704 203.0592 170.666667h7.441067V684.2368c-31.3344 19.694933-52.599467 55.978667-52.599467 97.9968C526.2336 845.073067 573.3376 896 631.466667 896c58.129067 0 105.233067-50.926933 105.233066-113.7664 0-42.018133-21.2992-78.301867-52.6336-97.9968V554.666667h7.4752c23.483733-97.962667 105.0624-170.666667 203.025067-170.666667 74.683733 0 139.639467 42.359467 176.810667 105.813333a119.432533 119.432533 0 0 0-18.944 64.853334c0 62.839467 47.138133 113.800533 105.2672 113.800533S1262.933333 617.506133 1262.933333 554.666667c0-59.460267-42.325333-107.656533-96.085333-112.776534L947.2-128z"  horiz-adv-x="1262" />

    
    <glyph glyph-name="video_fill_light" unicode="&#59368;" d="M512 810.666667C277.333333 810.666667 85.333333 618.666667 85.333333 384s192-426.666667 426.666667-426.666667 426.666667 192 426.666667 426.666667c0 236.8-192 426.666667-426.666667 426.666667z m181.333333-460.8l-256-155.733334c-2.133333-2.133333-6.4-2.133333-10.666666-2.133333s-6.4 0-10.666667 2.133333c-6.4 4.266667-10.666667 10.666667-10.666667 19.2V533.333333c0 4.266667 0 8.533333 4.266667 12.8 6.4 10.666667 19.2 12.8 29.866667 6.4l256-164.266666c6.4-4.266667 10.666667-10.666667 10.666666-19.2-2.133333-8.533333-6.4-14.933333-12.8-19.2z"  horiz-adv-x="1024" />

    
    <glyph glyph-name="caigou" unicode="&#59527;" d="M768 320c13.6 0 24.8 8.8 29.6 22.4l97.6 318.4c6.4 20.8-8 43.2-29.6 43.2H252.8l-18.4 64L216 832H64v-64h104.8l18.4-64 100-361.6c1.6-4.8 4-8.8 7.2-12l-52-83.2c-6.4-5.6-10.4-14.4-10.4-23.2 0-17.6 14.4-32 32-32h568v64H323.2l40 64H768zM320 64m-64 0a64 64 0 1 1 128 0 64 64 0 1 1-128 0ZM768 64m-64 0a64 64 0 1 1 128 0 64 64 0 1 1-128 0Z"  horiz-adv-x="1024" />

    
    <glyph glyph-name="DDXD" unicode="&#58946;" d="M732.645121-128c-118.733554 0-215.114849 95.355963-215.114849 212.96165 0 117.605687 96.381296 212.96165 215.114849 212.96165 118.78482 0 215.114849-95.355963 215.114849-212.96165 0-117.605687-96.330029-212.96165-215.114849-212.96165zM91.248105 678.988285c204.964053 291.39962 409.87684 291.39962 614.789626 0l15.277461-22.403525v-280.787423c-157.234805-5.946931-283.043156-133.652148-283.043156-290.835687 0-84.0773 36.245519-159.644338 93.86923-212.96165H75.970644V656.58476l15.277461 22.403525z m675.386803-459.502954H698.706601v-100.892761h-101.918094v-67.26184h101.918094v-100.841494h67.928307v100.841494h101.866827v67.26184h-101.866827v100.892761zM302.415422 656.58476a101.50796 101.50796 0 0 1 101.918094-100.89276A101.405427 101.405427 0 0 1 506.200343 656.58476l-0.563933 10.304596a101.405427 101.405427 0 0 1-101.302894 90.536898A101.405427 101.405427 0 0 1 302.415422 656.58476z"  horiz-adv-x="1024" />

    
    <glyph glyph-name="XJTLS" unicode="&#58947;" d="M915.027984 131.659702c68.024393-27.281416 108.665-61.575127 108.665-98.888733 0-88.549435-229.204839-160.463861-511.846446-160.463861s-511.795261 71.914426-511.795261 160.463861c0 37.313606 40.538239 71.607318 108.613816 98.888733-16.327902-11.516545-25.23403-23.954414-25.23403-36.904129 0-60.193142 191.788863-108.972108 428.415475-108.972108 236.677797 0 428.415475 48.778966 428.415476 108.972108 0 12.949715-8.854944 25.387584-25.23403 36.904129zM260.581118 860.938518c51.389383 0 93.002499-42.329701 93.002499-94.589223 0-52.259522-41.613116-94.640408-93.002499-94.640408s-93.053684 42.380886-93.053684 94.640408S209.191735 860.938518 260.581118 860.938518z m501.148855 0c-51.338199 0-93.002499-42.329701-93.002499-94.589223 0-52.259522 41.664301-94.640408 93.002499-94.640408 51.389383 0 93.053684 42.380886 93.053684 94.640408S813.119356 860.938518 761.729973 860.938518z m-91.927622-544.092772v-249.371588h65.618715l26.155353 174.795561 26.257723-174.795561h71.402579v276.192342c28.305108 14.997101 47.755273 45.144857 47.755274 79.745676v141.269619c0 49.444367-39.719284 89.829051-88.344697 89.829052h-108.665001a86.502049 86.502049 0 0 1-20.422673-2.405679c14.536439-22.674798 22.981905-49.597921 22.981906-78.517244v-153.809857c0-39.360992-15.86724-76.26512-42.739179-102.932321zM513.382078 895.948815c55.944817 0 101.294412-46.117365 101.294411-102.983505 0-56.814956-45.349595-102.93232-101.294411-102.93232-55.893632 0-101.192042 46.117365-101.192043 102.93232 0 56.86614 45.29841 102.983505 101.192043 102.983505z m100.06598-563.13346a98.274518 98.274518 0 0 1 52.413076 86.962712V573.587924c0 53.692692-43.251025 97.711487-96.124763 97.711486H451.448658c-52.873738 0-96.124763-44.018794-96.124763-97.711486v-153.809857c0-37.620714 21.190443-70.430071 52.003599-86.809158v-300.505048h77.749475l28.509847 190.202139 28.509847-190.202139h71.351395v300.351494z m-260.939318-15.969609a145.262021 145.262021 0 0 0-42.739179 102.932321V573.587924c0 28.919324 8.445466 55.842447 22.981906 78.517244a86.502049 86.502049 0 0 1-20.422673 2.405679H203.663793c-48.574228 0-88.293512-40.384685-88.293512-89.829052v-141.269619c0-34.60082 19.450165-64.748575 47.755273-79.745676v-276.192342h71.40258l26.206538 174.795561 26.206538-174.795561h65.56753v249.371588z"  horiz-adv-x="1024" />

    
    <glyph glyph-name="SHZX_YYJTXD" unicode="&#58948;" d="M511.232 640zM239.4112 640c0-141.4144 121.7536-256 271.8208-256s271.872 114.6368 271.872 256-121.7024 256-271.872 256-271.8208-114.5856-271.8208-256z m358.144-262.4l-86.272-81.2544L424.96 377.6C165.7344 338.5856 76.8 127.0784 76.8-128h870.4c0.0512 255.0784-90.4192 466.5856-349.6448 505.6m-86.3232-432.4864l-93.0304 87.6032 93.0304 263.2192 93.0304-263.3216-93.0304-87.5008"  horiz-adv-x="1024" />

    
    <glyph glyph-name="YYJTXD" unicode="&#58949;" d="M1056.29046 489.061735H19.391284c-26.566158 10.493377-25.030542 32.964559 0 47.962409 24.979355 14.997851 517.502624 358.975856 517.502625 358.975856s496.413497-343.978005 519.857235-358.975856c23.392552-14.997851 24.51867-37.469033-0.460684-47.962409zM128.215278 36.771607V407.469333h-41.922319v41.308073h214.167258v-45.40305h-41.922319v-366.602749H128.215278z m344.438691 0V407.469333h-41.92232v38.748712h214.167258v-40.233141h-41.922319v-369.213297H472.653969z m341.776955 0V407.469333h-41.922319v38.748712h214.167258v-40.233141h-41.922319v-369.213297h-130.32262zM45.189635-5.56021v0.35831h985.251287v-0.767808l42.434191-84.049387h0.358311v-37.724969H2.44832v37.366658H2.243571l42.792502 84.817196H45.189635z"  horiz-adv-x="1075" />

    
    <glyph glyph-name="SH_JSZH_BG" unicode="&#58950;" d="M1122.950146 184.966572c-10.455573-15.413887-23.336409-15.79115-33.630298-0.592842l-117.328781 173.055909h90.327532l-0.053895 21.773462a424.097461 424.097461 0 0 1-100.190263 274.108488 444.361871 444.361871 0 0 1-168.367069 123.364987 329.566142 329.566142 0 0 1-31.851773 11.479573 382.868009 382.868009 0 0 1-52.76292 13.743151 441.289873 441.289873 0 0 1-81.327115 8.24589c-90.920373-0.323368-179.2538-25.977249-254.275234-77.770064a44.732608 44.732608 0 0 0-32.660194-7.114101 42.954083 42.954083 0 0 0-28.079143 17.51578A42.46903 42.46903 0 0 0 323.368251 802.492142h-0.053895A529.353827 529.353827 0 0 0 624.531882 895.999461s35.031561-1.131789 48.8825-2.425262l23.713672-2.964209c6.359576-0.700631 34.977666-5.928418 46.133871-8.407574 11.10231-2.533051 22.150725-5.443366 33.037456-8.730943l13.150309-4.203787c12.773046-4.257682-31.959562 15.952834 43.654714-16.168413a521.700778 521.700778 0 0 0 194.290424-142.443714l29.642089-39.343138a506.933628 506.933628 0 0 0 92.321636-292.10932v-21.827356H1239.578295l-116.628149-172.409173zM441.182084 541.26449a33.576403 33.576403 0 0 0-0.91621 36.001665 41.714504 41.714504 0 0 0 36.217244 19.671569h3.125893c17.461886 0 33.576403-8.569259 42.037872-22.366304 39.882084-65.212597 70.332595-105.41805 92.537215-134.736771 12.126309-15.952834 21.611778-28.510301 28.348616-39.612611 23.713672 37.941875 111.023099 162.869809 122.071515 178.660958l11.2101 16.114518 0.970104 0.700631c19.671569 13.958729 44.355345 8.084206 58.529654-4.904418 14.282098-13.096414 16.491781-31.097247 5.712839-45.972186l-0.161684-0.161685-127.514881-163.893808h84.399114c20.695568 0 37.510717-15.198308 37.510717-33.845877 0-18.647569-16.815149-33.845877-37.510717-33.845877h-112.316573v-62.517862h111.93931c20.911147 0 37.88798-15.359992 37.88798-34.22314 0-18.863148-16.976833-34.22314-37.88798-34.223139h-111.93931v-68.985227c0-22.527988-20.3722-40.852189-45.379344-40.852189-25.007145 0-45.32545 18.324201-45.32545 40.852189v68.985227H477.291538c-20.911147 0-37.88798 15.359992-37.88798 34.223139 0 18.863148 16.976833 34.22314 37.88798 34.22314h117.43657v62.517862H476.860381c-20.641673 0-37.456822 15.198308-37.456823 33.845877 0 18.647569 16.815149 33.845877 37.456823 33.845877h88.387322L441.343768 541.048911l-0.161684 0.215579z m-34.115351-532.156352c10.778942-5.49726 21.719568-10.725047 32.821878-15.629465l6.790733-2.85642c9.26989-3.826524 18.809253-7.167996 28.456406-10.024415l13.797045-5.012208c8.677048-2.479157 17.461886-4.419366 30.396616-7.275786 4.257682-0.970105 8.515364-2.101894 12.180204-2.694735 10.07831-1.83242 20.156621-3.341472 30.342721-4.527156l12.395783-1.616841c11.695152-0.754526 23.444198-1.616841 35.301034-1.886315h0.107789a439.834716 439.834716 0 0 1 256.484918 77.931749 44.463134 44.463134 0 0 0 32.660193 7.114101c11.479573-1.994104 21.557883-8.35368 28.025249-17.62357a42.199557 42.199557 0 0 0-10.725047-59.445863 531.294036 531.294036 0 0 0-352.471394-91.135952 1220.607358 1220.607358 0 0 0-39.774295 5.443365l-8.892627 1.886315c-4.796629 0.700631-9.377679 1.83242-14.012624 2.964209l-6.305681 1.455157a936.151086 936.151086 0 0 0-30.019352 7.54526l-16.653465 5.49726a436.277665 436.277665 0 0 0-34.007561 12.503572l-9.593258 4.095998a520.4612 520.4612 0 0 0-41.552821 20.048832 533.342035 533.342035 0 0 0-153.599919 125.898039l-10.07831 12.503572 0.053895 0.053895a510.113416 510.113416 0 0 0-108.975101 314.583413v21.881252H0l116.628149 172.355277c10.401679 15.359992 23.336409 15.68336 33.738088 0.538947l117.167096-173.163698H177.259696v-21.827357c0-96.741002 33.414719-190.733373 94.962477-267.425543 1.83242-2.533051 3.77263-5.066103 5.766733-7.491365 35.570508-42.57682 79.386906-78.147327 129.077827-104.663524z"  horiz-adv-x="1239" />

    
    <glyph glyph-name="SH_JSZH_BD" unicode="&#58951;" d="M1036.799482-76.800026h-61.43997v48.639976h61.43997c47.871976 0 87.295956 35.839982 87.295956 79.35996 0 43.519978-39.42398 79.35996-87.295956 79.359961h-61.43997V179.199846h61.43997c77.414361 0 140.79993-57.599971 140.799929-127.999936S1114.213843-76.800026 1036.799482-76.800026z m-64.870368 402.482999c-11.468794 0-22.271989 3.020798-31.539184 8.243196 1.638399 15.206392 2.559999 30.566385 2.559999 46.182377 0 233.523083-191.487904 422.860589-427.673387 422.860589-236.185482 0-427.673386-189.337505-427.673386-422.860589s191.487904-422.809389 427.673386-422.809389c82.483159 0 99.12315 7.731196 99.123151-34.099183 6.399997-48.486376-86.988757-51.199974-96.563152-51.199974-69.887965 0-137.676731 13.567993-201.574299 40.24318a516.812542 516.812542 0 0 0-275.558262 272.435064A504.729348 504.729348 0 0 0 0 383.999744c0 69.119965 13.721593 136.140732 40.70398 199.3215A516.812542 516.812542 0 0 0 316.262242 855.756308 520.39654 520.39654 0 0 0 517.836541 895.999488c69.887965 0 137.727931-13.567993 201.574299-40.24318a516.812542 516.812542 0 0 0 275.558263-272.435064c26.777587-62.617569 40.44798-129.023935 40.703979-197.427101a1.791999 1.791999 0 0 0-0.256-0.921599 63.283168 63.283168 0 0 0-63.487968-59.289571z m-444.466978-158.156721c0-22.067189-19.19999-40.08958-42.751978-40.08958-23.603188 0-42.751979 18.022391-42.751979 40.08958v67.686366H331.212634c-19.71199 0-35.737582 15.052792-35.737582 33.535984 0 18.534391 16.025592 33.587183 35.737582 33.587183h110.745545v61.337569h-111.103944c-19.50719 0-35.379182 14.899193-35.379183 33.177584 0 18.329591 15.871992 33.228783 35.379183 33.228783h83.302358L297.318251 587.314842l-0.1536 0.2048a34.099183 34.099183 0 0 0-0.870399 35.276783 38.963181 38.963181 0 0 0 34.150383 19.35359h2.969598c16.486392 0 31.641584-8.447996 39.62878-21.964789 37.580781-63.948768 66.303967-103.372748 87.244757-132.198334 11.417594-15.615992 20.37759-27.903986 26.726386-38.809581 22.323189 37.171181 104.652748 159.74392 115.097543 175.257513l10.547195 15.769592 0.921599 0.6656c18.534391 13.721593 41.830379 7.987196 55.193573-4.761598 13.414393-12.851194 15.564792-30.566385 5.375997-45.107178l-0.1536-0.153599-120.21754-160.76792h79.56476c19.50719 0 35.327982-14.899193 35.327983-33.228783 0-18.278391-15.820792-33.177583-35.327983-33.177584h-105.881547v-61.337569h105.523148c19.71199 0 35.686382-15.052792 35.686382-33.587183 0-18.483191-15.974392-33.535983-35.686382-33.535984h-105.523148v-67.686366zM834.559583 76.799898h174.079913v-51.199975h-174.079913v51.199975z m-28.159986 102.399948h112.639943v-48.639975h-112.639943c-47.871976 0-87.295956-35.839982-87.295957-79.359961 0-43.519978 39.42398-79.35996 87.295957-79.35996h112.639943V-76.800026h-112.639943C728.985236-76.800026 665.599667-19.200054 665.599667 51.19991s63.385568 127.999936 140.79993 127.999936z"  horiz-adv-x="1177" />

    
    <glyph glyph-name="SH_JSZH_XZ" unicode="&#58952;" d="M1032.396284 67.020702h-102.195149v-101.068749a42.700779 42.700779 0 0 0-42.803179-42.291179 42.649579 42.649579 0 0 0-42.803178 42.291179v101.068749h-102.246349a42.700779 42.700779 0 0 0-42.803179 42.291179c0 23.295988 19.30239 42.342379 42.803179 42.342379h102.246349v101.06875c0 23.244788 19.25119 42.291179 42.803178 42.291178 23.500788 0 42.803179-19.04639 42.803179-42.291178v-101.06875h102.195149c23.551988 0 42.803179-19.04639 42.803178-42.342379a42.700779 42.700779 0 0 0-42.803178-42.291179zM297.164651 587.519642a34.099183 34.099183 0 0 0-0.870399 35.276783 38.963181 38.963181 0 0 0 34.150383 19.35359h2.969598c16.486392 0 31.641584-8.447996 39.62878-21.964789 37.580781-63.948768 66.303967-103.372748 87.244757-132.198334 11.417594-15.615992 20.37759-27.903986 26.726386-38.809581 22.323189 37.171181 104.652748 159.74392 115.097543 175.257513l10.547195 15.769592 0.921599 0.6656c18.534391 13.721593 41.830379 7.987196 55.193573-4.761598 13.414393-12.851194 15.564792-30.566385 5.375997-45.107178l-0.1536-0.153599-120.21754-160.76792h79.56476c19.50719 0 35.327982-14.899193 35.327983-33.228783 0-18.278391-15.820792-33.177583-35.327983-33.177584h-105.881547v-61.337569h105.523148c19.71199 0 35.686382-15.052792 35.686382-33.587183 0-18.483191-15.974392-33.535983-35.686382-33.535984h-105.523148v-67.686366c0-22.067189-19.19999-40.08958-42.751978-40.08958-23.603188 0-42.751979 18.022391-42.751979 40.08958v67.686366H331.212634c-19.71199 0-35.737582 15.052792-35.737582 33.535984 0 18.534391 16.025592 33.587183 35.737582 33.587183h110.745545v61.337569h-111.103944c-19.50719 0-35.379182 14.899193-35.379183 33.177584 0 18.329591 15.871992 33.228783 35.379183 33.228783h83.302358L297.318251 587.314842l-0.1536 0.2048z m674.764463-261.836669c-11.468794 0-22.271989 3.020798-31.539184 8.243196 1.638399 15.206392 2.559999 30.566385 2.559999 46.182377 0 233.523083-191.487904 422.860589-427.673387 422.860589-236.185482 0-427.673386-189.337505-427.673386-422.860589s191.487904-422.809389 427.673386-422.809389a429.414185 429.414185 0 0 1 181.24791 39.78238c10.547195-11.263994 16.998392-26.265587 16.998391-42.803178a63.078368 63.078368 0 0 0-43.673578-59.85277c-49.100775-14.899193-100.19835-22.425589-152.012724-22.425589-69.887965 0-137.676731 13.567993-201.574299 40.24318a516.812542 516.812542 0 0 0-275.558262 272.435064A504.729348 504.729348 0 0 0 0 383.999744c0 69.119965 13.721593 136.140732 40.70398 199.3215A516.812542 516.812542 0 0 0 316.262242 855.756308 520.39654 520.39654 0 0 0 517.836541 895.999488c69.887965 0 137.727931-13.567993 201.574299-40.24318a516.812542 516.812542 0 0 0 275.558263-272.435064c26.777587-62.617569 40.44798-129.023935 40.703979-197.427101a1.791999 1.791999 0 0 0-0.256-0.921599 63.283168 63.283168 0 0 0-63.487968-59.289571z"  horiz-adv-x="1075" />

    
    <glyph glyph-name="fujian" unicode="&#58958;" d="M333.7 30.1c-57.9 0.1-110.3 17.9-151.5 51.5-40.3 32.9-66.9 79.6-74.8 131.6-5.3 34.8-3.2 68 6.5 98.6 9.7 30.9 27.1 59.3 51.7 84.2 60.9 61.8 123.5 123.8 184.1 183.8 23 22.8 46.8 46.3 70.1 69.5 7.9 7.9 18.1 12.2 28.5 12.2 10.1 0 19.8-4.1 27.2-11.5 7.4-7.4 11.4-17 11.4-27 0-10.6-4.5-21-12.7-29.1-92.1-91.7-168.9-168.1-248.8-247.4-17.8-17.7-30-37.3-37.1-60.1-11.8-37.8-6.1-79.3 15.7-113.8 21.6-34.3 56.3-57.3 95.2-62.9 8.1-1.2 16.2-1.8 23.9-1.8 38.1 0 70.6 13.9 99.3 42.4 62.4 62 124.9 124.1 187.3 186.2 56.4 56.1 112.9 112.3 169.4 168.4 15.1 15 23.9 32.1 26.8 52.2 6.5 44.2-23.7 87.8-67.2 97.1-7.6 1.6-15.1 2.5-22.1 2.5-25.4 0-47.1-10.3-66.4-31.4-3.4-3.7-6.9-7.2-10.4-10.5-1.2-1.2-2.5-2.4-3.7-3.6l-85.4-84.7C496 472.2 441.3 418 386.7 363.7c-14.3-14.2-16.4-34.6-5.1-49.6 7.2-9.7 18.3-15.2 30.3-15.2 9.1 0 17.9 3.3 24.8 9.3 1.4 1.2 2.9 2.7 4.5 4.3l32.1 31.9c41.2 40.9 83.7 83.3 125.5 124.9 8.7 8.7 18.5 13.1 29 13.1 3.8 0 7.6-0.6 11.5-1.7 12.3-3.6 21.9-13.2 25.8-25.4 3.9-12.4 1.3-25.9-6.8-36-1.5-1.8-3-3.4-4.2-4.6-16.1-16-32.1-32-48.1-48-37-37-75.3-75.2-113.3-112.5-21.8-21.4-50.4-33.2-80.5-33.2-24.7 0-49.2 8-69 22.6-21.2 15.6-36 37.5-42.6 63.4-10.8 41.6 0 80.2 31.1 111.4 23.3 23.4 47.1 46.9 70.1 69.7l29 28.7c14.6 14.5 29.2 28.9 43.8 43.4 38.2 37.9 77.8 77.1 116.5 115.8 11.3 11.3 24.1 24 40 33.9 26.1 16.2 56 24.7 86.5 24.7 38.7 0 76.6-13.6 106.7-38.2 31.4-25.7 52-61.9 58.1-101.9 8.3-54.4-7.5-103.3-45.7-141.5-122-122-245.9-245.1-361.8-360-39.4-39.1-90.8-62-140.8-62.8h-0.2c-0.1-0.1-0.1-0.1-0.2-0.1zM333.9 43.8c-112.6 0.1-197.6 71.9-212.9 171.4-10 65.4 7.9 123.8 54.4 171 83.9 85.2 169.3 168.9 254.1 253.2 10.8 10.8 26.1 10.9 36.3 0.8 10.2-10.2 9.8-25.6-1.3-36.7-82.9-82.5-165.8-165-248.8-247.4-18.8-18.7-32.5-40.3-40.5-65.7C148 203.3 207.1 109 297.2 96c52.3-7.5 97.4 7.2 134.9 44.5C551 258.6 669.8 376.9 788.7 495.1c16.8 16.7 27.3 36.4 30.8 59.9 7.5 51.2-27 101.7-77.9 112.5-40 8.5-73.9-2.8-101.5-33.1-4.3-4.7-9-9.1-13.6-13.7-83.1-82.5-166.3-165-249.4-247.6-19.2-19.1-21.9-47-6.4-67.6 18-24 52.4-27.7 75.1-8.1 2 1.7 3.8 3.6 5.6 5.4 52.4 52.1 104.9 104.2 157.2 156.4 7.6 7.6 16.4 11 26.9 7.9 16.9-5 23.3-25.8 12.2-39.6-1-1.2-2.1-2.4-3.2-3.5-53.7-53.3-107.2-107-161.3-160.2-55.6-54.7-149.8-28.9-169.3 46.4-9.7 37.6 0.2 70.8 27.6 98.3 32.8 33 66 65.6 99 98.3 53.5 53.1 107 106 160.3 159.2 11.7 11.7 23.3 23.2 37.5 31.9 91.9 56.9 214.3 1.1 230.5-105.7 7.6-49.7-6.1-94-41.8-129.7-120.3-120.2-241-240-361.8-359.8-39.5-39.3-87.8-58.2-131.3-58.9z"  horiz-adv-x="1024" />

    
    <glyph glyph-name="fenxiang" unicode="&#58959;" d="M567.8 59.4c-5.4 0-10.7 1.1-15.7 3.4-13.6 6.2-22.5 19.8-22.5 34.8V244.9c-28.4-2.6-72.8-8.1-122.6-19.9-52.2-12.3-100.2-28.8-142.9-49.2-52.3-24.9-96.5-55.6-131.4-91.2-7.1-7.3-17.1-11.5-27.3-11.5-5.8 0-11.7 1.4-16.9 4-14.8 7.3-23.2 23.3-20.8 39.6 0.4 2.5 9 60.9 42.2 135.5 19.4 43.8 43.4 84.4 71.2 120.8 34.8 45.5 75.8 84.4 121.7 115.7 11.7 8.7 103.5 74.9 226.8 96.8v132c0 15 8.8 28.6 22.4 34.8 5 2.2 10.3 3.4 15.7 3.4 9.3 0 18.2-3.4 25.2-9.5l351.6-309.5c8.2-7.2 12.9-17.7 12.9-28.6 0-10.9-4.7-21.4-12.9-28.6L593.1 69c-7-6.2-16-9.6-25.3-9.6z m0 264.2c10.1 0 19.6-3.9 26.8-11 7.2-7.1 11.3-17 11.3-27.1v-103.3l255.8 225.9L606 633.3v-80.8c0-19.7-14.7-36-34.3-37.9-123.1-12.5-222.6-86.4-223.5-87.1-0.5-0.4-1.1-0.8-1.6-1.2-39.5-26.7-74.7-60.2-104.7-99.4-24.2-31.6-45.1-67.1-62.1-105.4-0.9-1.9-1.7-3.8-2.5-5.8 17.4 10.5 35.7 20.4 54.8 29.5 47.7 22.7 101.1 41 158.7 54.5 97.6 22.9 173.5 24 176.7 24l0.3-0.1zM567.8 73.9c-3.3 0-6.6 0.7-9.7 2.1-8.5 3.8-13.9 12.3-13.9 21.6v163c-28.7-2-80.5-7.3-140.4-21.5-53.1-12.5-102.2-29.4-145.8-50.2-53.8-25.6-99.4-57.3-135.5-94.1-7.2-7.3-18.2-9.2-27.4-4.7-9.2 4.5-14.4 14.5-12.9 24.6 0.3 2.4 8.7 58.8 41.1 131.7 19 42.7 42.4 82.4 69.5 117.9 33.9 44.4 73.8 82.3 118.6 112.7 9.1 6.9 105.3 77.1 232.9 96.3V717.7c0 9.3 5.4 17.7 13.9 21.6 8.5 3.8 18.4 2.3 25.4-3.8L935 425.9c5.1-4.5 8-11 8-17.8 0-6.8-2.9-13.3-8-17.8L583.5 79.8c-4.4-3.9-10-5.9-15.7-5.9z m0 235.2c6.2 0 12.2-2.5 16.7-6.8 4.5-4.4 7-10.5 7-16.8v-135.4l292.1 258-292.1 257.1v-112.8c0-12.2-9.2-22.3-21.3-23.6-128-13-229.8-89.2-230.8-90-0.3-0.3-0.7-0.5-1.1-0.8-40.8-27.6-77.1-62.1-108.1-102.6-24.9-32.5-46.4-69-63.8-108.3-7.8-17.5-14-33.9-19-48.7 27.3 19.9 57.7 37.8 90.7 53.5 46.8 22.2 99.2 40.2 155.8 53.5C490 307.9 564.3 309 567.5 309c0.2 0.1 0.3 0.1 0.3 0.1z"  horiz-adv-x="1024" />

    
    <glyph glyph-name="jiahao1" unicode="&#58964;" d="M829.2 699.3C744.6 783.4 632.3 829.8 512.7 829.8s-232-46.3-316.5-130.5C111.6 615.1 65 503.2 65 384.1S111.6 153 196.2 68.9s197-130.5 316.5-130.5 232 46.3 316.5 130.5C913.8 153 960.4 265 960.4 384.1s-46.6 231-131.2 315.2z m-92.6-347.2H544.7v-191.9c0-17.7-14.3-32-32-32s-32 14.3-32 32V352.1H288.8c-17.7 0-32 14.3-32 32s14.3 32 32 32h191.9V607.9c0 17.7 14.3 32 32 32s32-14.3 32-32V416h191.9c17.7 0 32-14.3 32-32-0.1-17.6-14.4-31.9-32-31.9z"  horiz-adv-x="1024" />

    
    <glyph glyph-name="liansuo1" unicode="&#58966;" d="M921.4 302.3h-76v102c0 33.6-25.6 61-57.2 61h-247V567.2h57c21.1 0 38.1 18.3 38.1 40.8V791.3c0 22.6-17 40.8-38.1 40.8h-171c-21.1 0-38.1-18.3-38.1-40.8V608c0-22.6 17-40.8 38.1-40.8h38v-101.9h-247c-31.6 0-57.2-27.3-57.2-61v-102h-57c-21.1 0-38.1-18.3-38.1-40.8v-183.3c0-22.6 17-40.8 38.1-40.8h171c21.1 0 38.1 18.3 38.1 40.8V261.5c0 22.6-17 40.8-38.1 40.8h-57V404.2h247.1v-101.9h-38c-21.1 0-38.1-18.3-38.1-40.8v-183.3c0-22.6 17-40.8 38.1-40.8h171c21.1 0 38.1 18.3 38.1 40.8V261.5c0 22.6-17 40.8-38.1 40.8h-57V404.2h247.1v-101.9h-38c-21.1 0-38.1-18.3-38.1-40.8v-183.3c0-22.6 17-40.8 38.1-40.8h171c21.1 0 38.1 18.3 38.1 40.8V261.5c0.2 22.6-16.9 40.8-37.9 40.8m0 0z"  horiz-adv-x="1024" />

    
    <glyph glyph-name="zhuanzhang" unicode="&#58970;" d="M336.3 708.2L66.4 442.5h893.2V555.6H336.9l-0.6 152.6zM66.4 161.7h622.8l0.4-152.6 270 265.7H66.4v-113.1z"  horiz-adv-x="1024" />

    
    <glyph glyph-name="tijiaoshenhe" unicode="&#58971;" d="M613.3-61.3v68.9h174.5V762.7H456.4v-198.3c0-19-15.5-34.4-34.4-34.4H194.9v-522.4h174.2v-68.9H160.4c-19 0-34.4 15.5-34.4 34.4V575.9c0 7.9 2.7 15.6 7.7 21.7 2.1 3.2 4.6 6.2 7.3 8.8L357.9 816.6c6.4 9.4 17 15 28.4 15h436c19 0 34.4-15.5 34.4-34.4v-824c0-19-15.5-34.4-34.4-34.4h-209zM387.5 598.9V749.4L232.2 598.9h155.3z m65.4-490.6h-60.4L494.2 210l101.7-101.7h-63.3v-107h-79.7v107zM258 305h488.2l0.1-79.7H258.1L258 305z m0 88.6h488.2l0.1-79.6H258.1l-0.1 79.6z m0 88.6h488.2l0.1-79.6H258.1l-0.1 79.6zM822.3-52.7H622V-1h174.5V771.3H447.7v-206.9c0-14.3-11.6-25.8-25.8-25.8H186.3V-1h174.2v-51.6h-200c-14.3 0-25.8 11.6-25.8 25.8V575.9c0 6.3 2.3 12.1 6.1 16.6 1.8 2.8 3.9 5.4 6.3 7.7L364.6 811.1c4.6 7.2 12.6 11.9 21.7 11.9h436c14.3 0 25.8-11.6 25.8-25.8v-824c0-14.3-11.5-25.9-25.8-25.9zM396.1 769.7L210.9 590.3h185.2V769.7zM266.8 234l-0.1 62.4h470.9l0.1-62.4H266.8z m-0.1 239.5h470.9l0.1-62.4H266.8l-0.1 62.4z m0.1-150.9l-0.1 62.4h470.9l0.1-62.4H266.8z m227.4-124.7L575 117h-51.2v-107h-62.4V117h-48.2l81 80.9z"  horiz-adv-x="1024" />

    
    <glyph glyph-name="duanxin" unicode="&#58977;" d="M245.4 131.8c-53.2 35.4-97.2 81.4-127.3 133.2-31.3 53.8-47.9 114.3-47.9 175 0 52.7 11.9 103.7 35.4 151.8 22.6 46.2 55 87.7 96.2 123.3 41.1 35.5 88.8 63.3 142 82.7C398.7 817.8 457 828 517 828c60 0 118.3-10.2 173.2-30.2 53.2-19.4 100.9-47.3 142-82.7 41.2-35.6 73.5-77.1 96.2-123.3 23.5-48 35.4-99.1 35.4-151.8 0-52.7-11.9-103.7-35.4-151.8-22.6-46.2-55-87.7-96.2-123.3-41-35.5-88.8-63.3-142-82.7C635.3 62.1 577 52 516.9 52c-22.8 0-45.7 1.5-68.3 4.5L245.3-90.2l0.1 222zM517 758.1c-206.5 0-374.5-142.7-374.5-318.2 0-102.9 59.1-200 158.2-259.7l17-10.3v-19.4l-0.1-101.5 99.9 72 12.4 9 15.3-2.5c23.5-3.9 47.7-5.8 71.7-5.8 206.5 0 374.5 142.7 374.5 318.2 0.1 175.5-167.9 318.2-374.4 318.2zM354.5 312.2c-14.1 0-25.2 13.7-25.2 31.3v9.3c0 17.5 11.1 31.3 25.2 31.3h329.2c14.1 0 25.2-13.7 25.2-31.3v-9.3c0-17.5-11.1-31.3-25.2-31.3H354.5z m-53.3 169.3c-16.8 0-30.5 14-30.5 31.3v9.3c0 17.3 13.7 31.3 30.5 31.3h435.6c16.8 0 30.5-14 30.5-31.3v-18h-1.2c-3.7-13-15.4-22.6-29.3-22.6H301.2zM517 62c-23.8 0-47.4 1.7-70.6 4.9l0.1 0.1h-0.7l0.6-0.1-192.3-138.7V137.9C145 208.7 78.9 320 78.9 441.3 78.9 651.4 275.7 820.6 517 820.6s438.1-169.2 438.1-379.3C955.1 231.1 758.4 62 517 62z m0 706.2c-212.3 0-383.3-147-383.3-326.9 0-107.3 61.2-206.1 162.4-267.2l12.8-7.7v-14.5l0.1-118.5h0.1l113.7 82 9.5 6.8 11.7-1.9c24-3.9 48.4-5.9 73.1-5.9 212.3 0 383.2 147 383.2 326.9 0 179.9-171 326.9-383.3 326.9z m219.9-276.7H301.2c-12 0-21.8 10.1-21.8 22.6v9.3c0 12.5 9.8 22.6 21.8 22.6h435.6c12 0 21.8-10.1 21.8-22.6v-9.3c0.1-12.5-9.7-22.6-21.7-22.6zM354.5 376.7h329.2c9.1 0 16.5-10.1 16.5-22.6v-9.3c0-12.5-7.4-22.6-16.5-22.6H354.5c-9.1 0-16.5 10.1-16.5 22.6v9.3c0 12.5 7.4 22.6 16.5 22.6z"  horiz-adv-x="1024" />

    
    <glyph glyph-name="fuwurizhi1" unicode="&#58981;" d="M182.2-65.3c-64.4 0.1-116.8 52.5-116.8 116.8V631.8c0.1 64.4 52.5 116.8 116.8 116.8H230c2.2 21.4 11.9 41.2 27.5 56.3 17.1 16.5 39.7 25.6 63.5 25.7 23.8 0 46.4-9.1 63.5-25.7 15.6-15.1 25.3-34.9 27.5-56.3h202.7c2.2 21.4 11.9 41.2 27.5 56.3 17.1 16.5 39.7 25.6 63.5 25.7 23.8 0 46.4-9.1 63.5-25.7 15.6-15.1 25.3-34.9 27.5-56.3h47.7c64.3-0.1 116.8-52.5 116.8-116.8v-580.3c-0.1-64.4-52.5-116.8-116.8-116.8H182.2z m-48.7 116.8c0-26.8 21.9-48.7 48.7-48.7h662.2c26.8 0 48.7 21.9 48.7 48.7V458H133.5v-406.5zM893.2 534v99c-0.7 26.3-22.3 47.5-48.7 47.5H733.9v57.8l-0.3 3.3c-1.3 14.6-13.3 25.6-27.9 25.6-14.6 0-26.6-11-27.9-25.6l-0.3-3.3v-57.8H349.2v57.7l-0.3 3.3c-1.3 14.6-13.3 25.6-27.9 25.7-14.6 0-26.6-11.1-27.9-25.7l-0.3-3.4v-57.7H182.2c-26.8 0-48.7-21.9-48.7-48.7V534h759.7zM248.4 98.4c-21 0-38 17.1-38 38 0 21 17.1 38 38 38h353.3c13.5 0 26.1-7.3 32.9-19 6.8-11.7 6.8-26.3 0-38s-19.4-19-32.9-19H248.4z m0 113.6c-21 0-38 17-38 38s17 38 38 38h517.2c13.5 0 26.1-7.3 32.9-19 6.8-11.7 6.8-26.3 0-38s-19.4-19-32.9-19H248.4z m0 113.5c-21 0-38 17-38 38 0 18.7 13.6 34.4 31.5 37.4v0.6h523.7c13.5 0 26.2-7.3 32.9-19 6.8-11.7 6.8-26.3 0-38s-19.4-19-32.9-19H248.4z m384.8 239.8c-21 0-38 17-38 38s17 38 38 38h157.7c21 0 38-17 38-38s-17-38-38-38H633.2zM844.5-58.9H182.2c-60.9 0-110.3 49.4-110.4 110.4V631.8c0.1 60.9 49.4 110.3 110.4 110.4H236c1.7 45.7 39.2 81.9 85 82 45.8 0 83.3-36.2 85-82h214.8c1.7 45.7 39.2 82 85 82s83.3-36.2 85-82h53.8c60.9-0.1 110.3-49.4 110.4-110.4v-580.3c-0.2-60.9-49.6-110.3-110.5-110.4z m55.2 690.7c-0.1 30.5-24.7 55.1-55.2 55.2H740.4v55.2h-0.3c-1.6 17.8-16.5 31.5-34.4 31.5s-32.8-13.7-34.4-31.5h-0.3V687H355.7v55.2h-0.3c-1.6 17.8-16.5 31.5-34.4 31.6-17.9 0-32.8-13.7-34.4-31.6h-0.3V687H182.2c-30.5 0-55.1-24.7-55.2-55.2v-104.2h772.6l0.1 104.2z m0-167.3H127.1v-413c0-30.5 24.7-55.1 55.2-55.2h662.2c30.5 0 55.1 24.7 55.2 55.2v413zM765.6 218.4H248.4c-17.4 0-31.5 14.1-31.5 31.5s14.1 31.5 31.5 31.5h517.2c11.3 0 21.7-6 27.3-15.8 5.6-9.8 5.6-21.8 0-31.5-5.6-9.6-16-15.7-27.3-15.7z m0 113.6H248.4c-17.4 0-31.5 14.1-31.5 31.5S231 395 248.4 395h517.2c11.3 0 21.7-6 27.3-15.8 5.6-9.8 5.6-21.8 0-31.5s-16-15.7-27.3-15.7zM248.4 168h353.2c11.3 0 21.7-6 27.3-15.8 5.6-9.8 5.6-21.8 0-31.5-5.6-9.8-16-15.8-27.3-15.8H248.4c-17.4 0-31.5 14.1-31.5 31.5S231 168 248.4 168z m384.8 466.8h157.7c17.4 0 31.5-14.1 31.5-31.5s-14.1-31.5-31.5-31.5H633.2c-17.4 0-31.5 14.1-31.5 31.5-0.1 17.4 14 31.5 31.5 31.5z"  horiz-adv-x="1024" />

    
    <glyph glyph-name="xiaoshou1" unicode="&#58982;" d="M861-61.2c-15.1 0-42.8 12.7-42.8 28.1v0.8h-0.5l-0.4 5.7c-9.8 131.8-90 247.1-204.9 294.6-34.3-16.5-70.8-33.7-117.7-33.7-43.5 0-85.8 9.8-125.9 29.7l-29.4 18-24 16.5C244.8 355.6 204.3 441 204.3 532.9c0 164.5 130.3 298.3 290.4 298.3C654.8 831.2 785 697.4 785 532.9c0-88.7-37.6-171.4-103.7-228.3 118.6-66 197.4-191.4 206.1-330l0.3-5.8c0-0.1 0.1-0.3 0.1-0.4v-1.4c0.1-15.6-12.1-28.2-26.8-28.2zM715 530.4c0 122.1-98.8 221.4-220.4 221.4-121.4 0-220.3-99.3-220.3-221.4 0-122.1 98.8-221.5 220.3-221.5 121.5 0 220.4 99.4 220.4 221.5z m-459.3-257v-0.1c4.9 3.2 10.6 4.7 16.4 4.7 20 0 47.7-9.8 47.7-26.7 0-9.8-4.4-18.8-11.7-25.2l0.1-0.1-4.7-3.4c-73-54.3-114.1-136.6-122.2-244.8l-0.1-1.3c0-0.8 0.1-1.7 0.1-2.6 0-18.3-29.9-33.1-47.5-33.1-17 0-30.9 13.8-31.8 31.2h-0.7l0.5 6.7c7.4 113.8 61.6 219.8 148.7 290.7l5.2 4zM413.5 186c2.3 14.6 16.2 26.6 30.8 26.6H536c14.7 0 28.1-12.1 29.9-26.7l18.8-152.8c1.8-14.7-4.9-35.5-14.9-46.4l-60-64.7c-4.8-5.2-11.4-8.2-18.5-8.4-7-0.2-13.8 2.5-18.9 7.4l-68.3 66.4c-10.6 10.2-17.3 30.6-15 45.2L413.5 186z m44-180.5l13.2-12.8c5-4.9 11.9-7.6 18.9-7.4 7 0.2 13.7 3.2 18.5 8.4l9.6 10.3c10 10.8 16.7 31.7 14.9 46.4l-10.5 85c-1.8 14.7-15.3 26.7-29.9 26.7h-5.5c-14.6 0-28.5-12-30.7-26.6l-13.5-84.7c-2.3-14.7 4.4-35 15-45.3z"  horiz-adv-x="1024" />

    
    <glyph glyph-name="kaoqin1" unicode="&#58984;" d="M227.8-60.4C138-60.4 65 17.3 65 112.9V662.4C65 758 138 835.8 227.8 835.8h570.6c89.8 0 162.8-77.8 162.8-173.3V113c0-95.6-73-173.3-162.8-173.3H227.8z m0 824.1c-50.1 0-90.8-45.4-90.8-101.3v-549.5c0-55.8 40.7-101.3 90.8-101.3h570.6c50.1 0 90.8 45.4 90.8 101.3V662.4c0 55.8-40.7 101.3-90.8 101.3H227.8z m475.4-665.6c-19.9 0-36 16.2-36 36V451.2c0.6 19.5 16.5 34.9 36 34.9 19.6 0 35.4-15.3 36-34.9v-317.1c0-9.6-3.7-18.7-10.5-25.5-6.8-6.8-15.8-10.5-25.5-10.5z m-190.2 0c-19.9 0-36 16.2-36 36V578c0.6 19.5 16.5 34.9 36 34.9 19.6 0 35.4-15.3 36-34.9v-443.9c0-9.6-3.7-18.7-10.5-25.5-6.8-6.8-15.8-10.5-25.5-10.5z m-190.2 0c-19.9 0-36 16.2-36 36V387.7c0.5 19.5 16.6 35.3 36 35.3s35.6-15.8 36-35.2v-253.7c0-9.6-3.7-18.7-10.6-25.5-6.7-6.8-15.7-10.5-25.4-10.5zM798.4-56.1H227.8c-87.4 0-158.5 75.8-158.5 169V662.4c0 93.2 71.1 169 158.5 169h570.6c87.4 0 158.5-75.8 158.5-169v-549.5c0-93.2-71.1-169-158.5-169z m95.1 718.5c0 58.2-42.7 105.6-95.1 105.6H227.8c-52.4 0-95.1-47.4-95.1-105.6v-549.5c0-58.2 42.7-105.6 95.1-105.6h570.6c52.4 0 95.1 47.4 95.1 105.6V662.4z m-190.3-560c-17.5 0-31.7 14.2-31.7 31.7v317c0.6 17.1 14.6 30.7 31.7 30.7s31.1-13.6 31.7-30.7v-317c0-8.4-3.3-16.5-9.3-22.4-5.9-6-14-9.3-22.4-9.3z m-190.2 0c-17.5 0-31.7 14.2-31.7 31.7V577.9c0.6 17.1 14.6 30.7 31.7 30.7s31.1-13.6 31.7-30.7v-443.8c0-8.4-3.3-16.5-9.3-22.4-5.9-6-14-9.3-22.4-9.3z m-190.2 0c-17.5 0-31.7 14.2-31.7 31.7V387.7c0.4 17.2 14.5 31 31.7 31s31.3-13.8 31.7-31v-253.6c0-8.4-3.3-16.5-9.3-22.4-5.9-6-13.9-9.3-22.4-9.3z"  horiz-adv-x="1024" />

    
    <glyph glyph-name="daka" unicode="&#58985;" d="M539.3-63.6c-107.6 0-206.1 11.7-277.4 32.9-38.7 11.5-69.4 25.8-91.4 42.5-29.7 22.5-44.8 49.9-44.8 81.3 0 37.8 13.7 67.6 40.7 88.5 24.5 18.9 60.9 29.6 111.4 32.8l5 0.3 48-73.1L317 140c-3.3-0.4-6.3-0.5-9-0.7-2.1-0.1-4.1-0.2-5.9-0.4h-0.4c-11.8-0.8-19.3-1.3-24-1.6-2.8-0.2-4.7-0.3-6-0.4l-1.2-0.1c-1.2-0.1-2-0.1-2.7-0.2-28.6-3-50.1-9.5-62.2-18.9-8.1-6.2-10.8-12.4-10.8-24.6 0-4.7 15.2-28.2 84.9-48.9 65.7-19.5 157.9-30.3 259.6-30.3 101.7 0 193.3 10.6 258.1 29.9 68.6 20.5 83.5 43.9 83.5 48.5 0 3.2-2.7 9.7-8.6 16.5-5.2 6-25.5 26-66.7 32.1l-31.6 1.6c-1.5 0.1-3.2 0.1-4.9 0.1-3.2 0-6.8 0.1-10.9 0.6l-13.6 1.6 47.7 74.1 5.1-0.4c25-1.8 45.9-6.3 63.8-13.6 24.3-9.9 45.2-24.4 60.6-42.1 18.5-21.2 28.3-45.7 28.3-70.7 0-31.3-14.9-58.6-44.2-81-21.8-16.7-52.2-31-90.5-42.4C745-52 647-63.6 539.3-63.6zM520.9 69c-17.2 0-33.6 8-43.8 21.3-12.9 16.7-28.9 36.5-45.8 57.3-44.5 55-99.8 123.5-143.7 191-52.1 80.3-77.4 142.8-77.4 191.3 0 80.4 32.4 156 91.1 212.9 58.7 56.8 136.7 88 219.6 88s160.9-31.3 219.6-88c58.8-56.8 91.1-132.4 91.1-212.9 0-48.5-25.3-111-77.4-191.2-43.8-67.5-99.2-136-143.6-191-16.9-20.9-32.9-40.7-45.9-57.5-10.6-13.5-26.5-21.3-43.6-21.3l-0.2 0.1z m0 691.5c-131.5 0-238.5-103.4-238.5-230.5 0-62.3 72.3-158.3 192-317.5 10.5-14 21.4-28.5 32.6-43.4 3.2-4.3 8.4-6.8 13.9-6.8s10.7 2.5 13.9 6.8c11.2 15 22.1 29.4 32.6 43.4 119.7 159.2 192 255.2 192 317.5 0 127.1-107 230.5-238.5 230.5z m-75.7-360.2c-1.9 0-8 0.7-8.7 9.2-0.1 0.9-0.2 2.3-0.3 4.1-0.2 3.3-0.4 8.2-0.6 14.3-0.5 11.9-1 28.5-1.5 46.6-0.9 32.8-1.9 77.3-1.9 104-0.1 21.2 7.6 33.4 14.1 39.8 7.6 7.7 17.9 11.9 29 11.9 23.1 0 47.1-18.7 47.2-50.1 0-33 0.2-76.7 0.3-94.8l116.5-0.6c35.3-0.2 51.3-22.4 51.3-43-0.1-20.1-16-41.6-45.4-41.6h-0.2c-24.9 0.1-62.3 0.1-89.2 0.1-48 0-96.5 0-107.9-0.1l-2.7 0.2zM900.6 18.2c-20.9-16.1-50.4-29.8-87.8-41C743.2-43.6 646-55 539.3-55c-106.7 0-204.3 11.5-274.9 32.5-37.7 11.2-67.6 25.1-88.7 41.1-27.5 20.8-41.4 45.8-41.4 74.5 0 35.1 12.6 62.5 37.3 81.7 23.5 18.1 58.9 28 106.6 31l37.7-57.3c-5.6-0.6-10.4-0.6-14.8-1.1-18.8-1.2-26.6-1.8-30-2-1.4-0.1-3.2-0.2-3.8-0.2-30.6-3.2-53.3-10.1-66.9-20.7-10.2-7.9-14.1-16.6-14.1-31.4 0-10.4 19-35.7 91-57.1 66.5-19.8 159.6-30.6 262.1-30.6 102.5 0 195 10.7 260.6 30.3 70.9 21.2 89.6 46.4 89.6 56.7 0 6.1-4.1 14.6-10.7 22.1-5.8 6.6-27.9 28.5-72.4 35l-31.9 1.6c-4.5 0.3-9.4-0.1-15.4 0.6l37.6 58.3c21.6-1.6 42.4-5.3 61.2-13 23.1-9.4 42.9-23.2 57.4-39.8 17.1-19.6 26.2-42.1 26.2-65-0.2-28.3-13.9-53.3-41-74z m-379.7 59.4c-14.6 0-28.3 6.6-37 17.9C403.2 200 218.8 403.9 218.8 530c0 161.5 135.3 292.3 302.1 292.3 166.9 0 302.2-130.8 302.2-292.3 0-126.2-184.4-329.9-265.1-434.5-8.9-11.4-22.6-18-37.1-17.9z m0 691.5c-136.2 0-247.1-107.2-247.1-239.1 0-70.8 86-179 226.4-366.1 4.8-6.4 12.5-10.2 20.7-10.2s16 3.8 20.8 10.2C682 351.1 768 459.2 768 530c0 131.8-110.8 239.1-247.1 239.1z m-80.2-190.5c-0.2 61.9 73.1 52.4 73.2 1.6 0.1-42.7 0.3-104.5 0.3-103.3l124.9-0.6c58-0.3 54.1-67.5 5.8-67.4-59.6 0.1-197.1 0-199.8 0-0.8-0.6-4.3 119-4.4 169.7z"  horiz-adv-x="1024" />

    
    <glyph glyph-name="zhishiku1" unicode="&#58986;" d="M516.3-60c-92.4 0-179.3 36.2-244.6 101.8-65.3 65.7-101.3 153-101.3 245.8 0 60.2 15.6 119.6 45.3 171.8 0.1 0.2 0.1 0.3 0.2 0.5 43.6 92.9 247.3 324.5 287.7 370l0.2 0.2 0.2 0.2c1 1 2.1 2 3.1 3 1.2 1.2 2.5 2.4 3.8 3.7l6 5.7 6-5.8c8.4-8.1 17.1-17.2 24.8-25.3 3.4-3.5 6.6-6.9 9.5-9.9l0.2-0.2 0.2-0.2c128.6-147.1 212.6-253.4 249.5-316 5.3-8.9 9.5-16.9 12.7-23.7 0.8-1.8 1.5-3.6 2-5.4 16.1-33.9 20.6-52.2 20.8-52.9l0.3-1.3c12.9-36.9 19.4-75.4 19.4-114.6 0-92.9-36-180.2-101.3-245.8C695.6-23.8 608.7-60 516.3-60zM285.6 427.2l-1.3-2.8-1.5-2.6c-23.2-40.8-35.5-87.2-35.5-134.2 0-149.1 120.7-270.4 269-270.4s269 121.3 269 270.4c0 30.9-5.3 61.4-15.7 90.7L759 408.2c-2.2 5.2-4.6 10.5-7.1 15.6l-2.8 5.9-0.6 2.3c-2.1 4.1-4.7 8.8-7.8 14.1-22.6 38.3-79.5 118.4-222.7 283.3-94.8-109.3-203.5-243.3-231.4-300.2l-1-2zM516.3 131c-21.3 0.1-38.5 17.4-38.5 38.7v81.4h-81c-10.3 0-20 4.1-27.3 11.4-7.3 7.3-11.3 17-11.2 27.3 0 21.3 17.3 38.6 38.5 38.6h81v81.4c0 21.3 17.3 38.6 38.5 38.6s38.5-17.3 38.5-38.6v-81.4h81c21.2 0 38.5-17.3 38.5-38.6 0-10.3-4-20-11.2-27.3-7.3-7.3-16.9-11.3-27.2-11.4h-81v-81.4c0-21.3-17.3-38.7-38.6-38.7zM853.7 287.7c0-187.3-151-339.1-337.4-339.1S179 100.4 179 287.7c0 61.3 16.3 118.7 44.5 168.3 0.1 0.1 0.1 0.3 0.1 0.4 43.2 92 247.6 324.3 286.3 367.9 2.3 2.2 4.5 4.4 6.8 6.7 11.9-11.4 24.3-24.9 34.2-35 61.9-70.8 197.2-227.5 248.6-314.7 4.9-8.3 9.1-16.1 12.4-23 0.8-1.6 1.3-3.2 1.7-4.7 16.2-33.9 20.6-52 20.6-52h-0.2c13-36.7 19.7-75.2 19.7-113.9z m-75.9 93.6l-10.7 30.1c-2.3 5.4-4.8 10.8-7.3 16.2l-2.5 5.2-0.6 2.4c-2.1 4.3-5 9.5-8.5 15.5C724.9 490 666 572.6 518 742.7 412.9 622 306.3 489.2 278.7 433l-1-2.2-1.1-2.4-1.3-2.3c-24-42.2-36.6-89.9-36.6-138.4 0-153.8 124.5-279 277.6-279 153.1 0 277.6 125.2 277.6 279 0.1 31.8-5.4 63.3-16.1 93.6z m-142-121.6h-89.6v-90.1c0-16.5-13.3-30-29.9-30-16.5 0-29.9 13.5-29.9 30v90.1h-89.6c-7.9 0-15.5 3.2-21.1 8.8-5.6 5.6-8.7 13.3-8.7 21.2 0 16.6 13.4 30 29.9 30h89.6v90.1c0 16.6 13.4 30 29.9 30s29.9-13.4 29.9-30v-90.1h89.6c16.5 0 29.9-13.4 29.9-30 0-7.9-3.1-15.6-8.7-21.2-5.7-5.6-13.3-8.8-21.3-8.8z"  horiz-adv-x="1024" />

    
    <glyph glyph-name="fankui1" unicode="&#58987;" d="M162.6-63.7c-55.6 0-100.8 44.6-100.8 99.5V670.1c0 54.9 45.2 99.5 100.8 99.5h450c20.1 0 36.5-16.2 36.5-36.1 0-19.9-16.4-36-36.5-36h-450c-15.3 0-27.8-12.3-27.8-27.4v-634.4c0-15.1 12.5-27.4 27.8-27.4h578.9c7.3 0 14.2 2.8 19.3 7.9 5.2 5.1 8.2 12.2 8.2 19.5V543.4c0 19.9 16.4 36.1 36.5 36.1s36.5-16.2 36.5-36.1v-507.5c0.1-26.3-10.2-51.1-28.9-69.9-19.1-19.2-44.5-29.7-71.6-29.7H162.6z m64 317.3c-9.6 0-18.6 3.7-25.4 10.4-6.8 6.7-10.7 16-10.8 25.6 0 19.9 16.4 36.1 36.5 36.1h385.7c20.1 0 36.5-16.2 36.5-36.1 0-19.9-16.3-36-36.3-36H226.6z m0 190.3c-9.6 0-18.6 3.7-25.4 10.4-6.8 6.7-10.7 16-10.8 25.6 0 19.9 16.4 36.1 36.5 36.1h192.9c20.1 0 36.5-16.2 36.5-36s-16.4-36-36.5-36l-193.2-0.1z m325.8 0c-9.7 0-18.9 3.8-25.9 10.6-6.8 6.7-10.7 16-10.7 25.5s3.9 18.9 10.8 25.5L846.2 820.7c6.9 6.8 16 10.6 25.8 10.6 9.7 0 18.9-3.8 25.8-10.6 6.9-6.8 10.7-15.9 10.7-25.5s-3.8-18.7-10.8-25.5L578.1 454.4c-6.9-6.8-15.9-10.5-25.7-10.5zM894.6 772.8L575.1 457.5c-6-5.9-14.2-9.2-22.6-9.2-8.3 0-16.4 3.1-22.8 9.4-6 5.9-9.5 14-9.5 22.4 0 8.4 3.4 16.5 9.5 22.4L849.2 817.6c12.6 12.5 32.9 12.5 45.4 0 12.7-12.4 12.7-32.4 0-44.8zM226.9 448.3c-8.5-0.1-16.6 3.2-22.7 9.2-6 6-9.4 14.1-9.5 22.5 0 17.6 14.3 31.7 32.1 31.7h192.9c17.8 0 32.1-14.1 32.1-31.7s-14.4-31.7-32.1-31.7H226.9z m417.8-158.6c0-17.6-14.3-31.7-32-31.7H226.9c-8.5-0.1-16.6 3.2-22.7 9.2-6 6-9.4 14.1-9.5 22.5 0 17.6 14.3 31.7 32.1 31.7h385.7c17.9 0 32.2-14.2 32.2-31.7z m-32.1 412.1h-450c-17.6 0-32.1-14.3-32.1-31.7v-634.4c0-17.6 14.5-31.7 32.1-31.7h578.6c8.5-0.1 16.6 3.2 22.7 9.2s9.4 14.1 9.5 22.5V543.4c0 17.6 14.3 31.7 32.1 31.7s32.1-14.2 32.1-31.7v-507.5c0.2-52.5-43.2-95.3-96.3-95.3H162.6c-53.2 0-96.4 42.6-96.4 95.2V670.1c0 52.5 43.2 95.2 96.4 95.2h450c17.8 0 32.1-14.2 32.1-31.7 0-17.6-14.3-31.8-32.1-31.8z"  horiz-adv-x="1024" />

    
    <glyph glyph-name="qiandao1" unicode="&#58988;" d="M848.3 718.5H786V798.6c0 18.3-14.9 33.2-33.2 33.2h-2.2c-18.3 0-33.2-14.9-33.2-33.2v-80.1H303.6V798.6c0 18.3-14.9 33.2-33.2 33.2h-2.2c-18.3 0-33.2-14.9-33.2-33.2v-80.1h-65.4c-58.1 0-105.3-47.3-105.3-105.3v-567.6c0-58.1 47.3-105.4 105.3-105.4h678.7c58.1 0 105.3 47.3 105.3 105.4V613.2c0 58-47.2 105.3-105.3 105.3M887.2 9H131.8V479.4h755.4V9m0 540.4H131.8V652.1h755.4v-102.7m0 0zM419 71.1c5.9-5.9 13.7-8.9 21.4-8.9 5.3 0 10.5 1.4 15.2 4.1 2.7 1.4 5.2 3.2 7.5 5.5l306.5 306.5c11.8 11.8 11.8 31 0 42.8-11.8 11.8-31 11.8-42.8 0l-286.1-286-144.8 144.8c-11.8 11.8-31 11.8-42.8 0-11.8-11.8-11.8-31 0-42.8l165.9-166m0 0z"  horiz-adv-x="1024" />

    
    <glyph glyph-name="shenpi" unicode="&#58990;" d="M692.7-39.9c-71.8 0-138.9 27.6-189 77.8-50 50.1-77.6 117.4-77.6 189.4 0 71.6 28.1 138.8 79 189.4 24.6 24.4 53.1 43.5 84.8 56.9 32.7 13.8 67.3 20.8 102.7 20.8 37.1 0 73.1-7.3 106.8-21.7 32.8-14 61.9-33.9 86.6-59.2 48.9-50.2 74.9-116.4 73.1-186.3 0-71.9-27.6-139.2-77.6-189.3-49.8-50.2-116.9-77.8-188.8-77.8z m0 480.7c-117.5 0-213.1-95.8-213.1-213.6s95.6-213.6 213.1-213.6 213.1 95.8 213.1 213.6-95.6 213.6-213.1 213.6zM96.9-28.7c-17.3 0-34.2 17-34.2 34.3V801.8c0 17.3 16.9 34.3 34.2 34.3h670.7c17.3 0 34.2-17 34.2-34.3v-248.4h-4.2c-7.7 0-20.1 1-32.2 1.9-11.9 0.9-24.2 1.9-31.5 1.9h-4.2V767.5H134.9v-723.9h260.2l1.3-1.7c5.2-7 10.4-16.9 15.8-27.4 6.7-12.9 13.6-26.3 21.6-36.3l5.5-6.9H96.9z m674.5 116.4c-4 0-8.9 0-13.8 4.5l-61.2 32.5-62-32.9-0.3-0.1c-5.3-1.8-10.4-2.7-15-2.7-7.8 0-14.3 2.5-19.3 7.5-8.7 8.7-12.5 17.5-12.5 29.3v0.2l7.3 73.2-51 47.5c-6.9 7-13.4 16-8.5 30.6 4.6 13.9 13.9 21.5 26.2 21.7l68.8 10.9 32.8 62.1 0.1 0.1c6 10 17.2 16.1 29.4 16.1 12.4 0 22.6-6.3 26.8-16.5l32.6-61.8 69.4-11 0.3-0.1c11.1-3.7 20.7-7.9 25.2-21.5l0.2-0.7v-0.7c0-11.4 0-23.2-4-35.1l-0.3-1-51.6-48 10.9-69.5v-0.3c0-11.8-3.7-20.5-12.5-29.3l-1.2-1.2h-1.8c-0.7 0-2-0.5-3.3-1.1-2.7-1.1-6.4-2.7-11.7-2.7zM725 176.1l-2.7 24.6v0.2c0 7.9 0 16.8 8.7 25.5l0.1 0.1 19 16.3-24.8 2.7-0.7 0.3c-8 4-16.3 8.2-20.6 16.9l-11.2 22.4-11.2-22.4c-4.3-8.6-12.8-17.2-22.3-17.4l-24.8-2.7 15.8-15.9c9.2-5.2 9.2-18.2 9.2-26v-0.3l-2.8-22.4 22.3 11.2c4.8 4.5 9.7 4.5 13.7 4.5s9.1 0 14-4.7l18.3-12.9zM205.1 253v68.6h158.4V253H205.1z m0 176.5v68.6h308.3v-68.6H205.1z m0 154V652h383.2v-68.6H205.1zM692.7-35.7c-146.1 0-262.3 116.4-262.3 262.9 0 146.5 119.9 262.9 262.3 262.9 146.1 0 266-116.4 262.3-262.9 0-146.5-116.1-262.9-262.3-262.9z m0 480.7c-119.9 0-217.3-97.7-217.3-217.8 0-120.2 97.4-217.8 217.3-217.8S910 107 910 227.2c0.1 120.2-97.4 217.8-217.3 217.8z m93.7-251.6l11.2-71.4c0-11.3-3.7-18.8-11.2-26.3-3.7 0-7.5-3.8-15-3.8-3.8 0-7.5 0-11.2 3.8l-63.7 33.8-63.7-33.8c-11.2-3.8-22.5-3.8-30 3.8-7.5 7.5-11.2 15-11.2 26.3l7.5 75.1-52.4 48.8c-7.5 7.5-11.2 15-7.5 26.3 3.8 11.3 11.2 18.8 22.5 18.8l71.2 11.3 33.7 63.9c11.2 18.8 41.2 18.8 48.7 0l33.7-63.9 71.2-11.3c11.2-3.8 18.7-7.5 22.5-18.8 0-11.3 0-22.5-3.7-33.8l-52.6-48.8z m-59.9 56.3c-7.5 3.8-15 7.5-18.7 15l-15 30-15-30c-3.7-7.5-11.2-15-18.7-15l-33.7-3.7 22.5-22.5c7.5-3.8 7.5-15 7.5-22.5l-3.7-30 30 15c3.7 3.8 7.5 3.8 11.2 3.8 3.7 0 7.5 0 11.2-3.8l26.2-18.8-3.7 33.8c0 7.5 0 15 7.5 22.5l26.2 22.5-33.8 3.7z m-517.2 7.5v60.1h149.9v-60.1H209.3z m0 390.6H584v-60.1H209.3v60.1z m0-154h299.8v-60.1H209.3v60.1z m524.6 277.9H130.7v-732.3H393c11.2-15 22.5-45.1 37.5-63.8H96.9c-15 0-30 15-30 30V801.8c0 15 15 30 30 30h670.7c15 0 30-15 30-30v-244.1c-15 0-48.7 3.8-63.7 3.8V771.7z"  horiz-adv-x="1024" />

    
    <glyph glyph-name="weixinzhifu" unicode="&#58953;" d="M372.961 261.018a33.756 33.756 0 0 0-15.247-3.656 33.833 33.833 0 0 0-29.537 17.326l-2.217 4.864-92.493 202.952a17.577 17.577 0 0 0-1.628 7.132 16.937 16.937 0 0 0 27.08 13.578l109.132-77.701a50.442 50.442 0 0 1 45.128-5.166l513.29 228.444C834.458 757.222 682.941 828.093 511.457 828.093 230.866 828.093 3.4 638.546 3.4 404.716c0-127.58 68.439-242.417 175.539-320.016a33.828 33.828 0 0 0 14.239-27.592c0-3.747-0.804-7.203-1.787-10.777-8.556-31.923-22.262-83.016-22.897-85.407-1.065-4.009-2.729-8.197-2.729-12.385a16.942 16.942 0 0 1 16.947-16.937c3.671 0 6.661 1.372 9.774 3.154l111.222 64.205c8.371 4.838 17.229 7.818 26.983 7.818 5.191 0 10.214-0.794 14.935-2.238 51.89-14.93 107.868-23.224 165.836-23.224 280.602 0 508.058 189.558 508.058 423.388 0 70.82-20.982 137.518-57.861 196.188L376.673 263.148l-3.712-2.13z"  horiz-adv-x="1024" />

    
    <glyph glyph-name="zhifubaozhifu" unicode="&#58954;" d="M342.28 200.035c-12.179 0.374-91.185 5.565-89.66 75.387h-0.002c0.467 21.244 23.97 78.637 115.014 69.206 48.084-4.98 102.259-34.075 112.923-39.215 10.66-5.14 21.517-10.758 32.56-16.853a93.782 93.782 0 0 0-4.572-4.285c-1.521-1.334-42.828-40.181-68.153-55.227-25.329-15.044-57.85-30.248-98.11-29.013z m540.875 16.868c-138.394 22.093-269.502 84.802-269.502 84.802 17.138 22.086 30.944 43.605 41.417 64.55 10.472 20.945 18.377 39.605 23.707 55.978 6.405 18.836 10.936 36.732 13.614 53.702h0.093v0.569c-0.027-0.186-0.063-0.379-0.093-0.57H559.387v63.407h167.377v27.423H559.387V632.46h-43.989c-7.231 0-13.712-0.573-19.42-1.72-4.952-0.759-9.332-2.185-13.14-4.28-3.81-2.097-5.711-4.856-5.711-8.286v-51.41H314.32v-27.422h162.806v-63.406H360.019v-27.423h247.926c-0.765-3.045-2.474-8.379-5.142-15.992-2.666-7.617-6.478-17.043-11.426-28.282-4.952-11.235-11.237-23.61-18.855-37.13-7.614-13.517-16.941-27.322-27.99-41.416a702.59 702.59 0 0 0-15.421 5.712 562.226 562.226 0 0 0-14.282 5.712 3051.978 3051.978 0 0 1-36.277 15.428c-12.756 5.33-26.277 10.279-40.559 14.852-14.28 4.568-29.228 8.472-44.846 11.71-15.614 3.237-31.8 5.234-48.556 5.996-17.135 0.76-34.18-1.332-51.125-6.28-16.945-4.953-32.374-12.187-46.273-21.712-13.902-9.52-25.234-21.136-33.993-34.848-8.756-13.712-13.327-28.942-13.709-45.703 0-19.42 4.003-36.463 11.999-51.123 7.995-14.662 18.853-26.85 32.56-36.56 13.71-9.711 29.8-17.044 48.273-21.992 18.471-4.953 38.176-7.431 59.123-7.431h9.143c1.14 0 2.095 0.194 2.855 0.573 7.995 0.383 18.092 1.24 30.277 2.57 12.185 1.339 26.37 4.572 42.56 9.712 16.184 5.147 34.353 12.567 53.696 23.71 22.024 12.692 82.545 61.123 82.545 61.123 121.561-54.003 200.717-86.879 275.252-103.095C774.438 47.17 651.408-22.935 512-22.935c-224.746 0-406.938 182.19-406.938 406.937S287.255 790.937 512 790.937 918.937 608.747 918.937 384c0.001-59.551-12.795-116.118-35.782-167.097z"  horiz-adv-x="1024" />

    
    <glyph glyph-name="wodeyinhangka" unicode="&#58955;" d="M629.469 322.9h66.324v-71.238h-66.324v71.239z m81.72 0h66.28v-71.238h-66.28v71.239z m85.257 0h66.302v-71.238h-66.302v71.239zM64.75 211c0-41.643 36.251-75.734 80.54-75.734h733.312c44.355 0 80.65 34.09 80.65 75.733V529.36H64.75V211zM878.6 761.415H145.29c-44.289 0-80.54-34.068-80.54-75.693v-84.602H959.25v84.602c0 41.625-36.295 75.693-80.65 75.693z m0 0"  horiz-adv-x="1024" />

    
    <glyph glyph-name="fapiao" unicode="&#58956;" d="M915.94 151.248h-76.508V225.72h38.23v74.497H150.98v-74.522h38.279v-74.473h-76.508c-21.175 0.025-38.28 16.682-38.28 37.286v372.34c0 35.97 152.993 74.473 420.722 74.473h38.254c265.371 0 420.697-37.634 420.697-74.473v-372.339c0.024-20.604-17.104-37.261-38.205-37.261z m-95.598 372.364c-31.7 0-57.394-24.974-57.394-55.855 0-30.832 25.669-55.805 57.394-55.805 31.65 0 57.344 24.973 57.344 55.805-0.025 30.881-25.693 55.855-57.344 55.855zM227.465 858.739C227.465 879.343 244.593 896 265.744 896h497.204c21.1 0 38.23-16.657 38.23-37.261v-186.157H227.465V858.739z m573.713-930.934c0-20.555-17.13-37.187-38.23-37.187H265.744c-21.15 0-38.28 16.632-38.28 37.187V262.932h573.714v-335.127zM724.669 225.72H303.973v-37.212h420.721V225.72h-0.025z m0-74.473H303.973v-37.236h420.721v37.236h-0.025z m0-74.448H303.973v-37.286h420.721V76.8h-0.025z m0-74.473H303.973v-37.286h420.721v37.286h-0.025z"  horiz-adv-x="1024" />

    
    <glyph glyph-name="kehu2" unicode="&#58991;" d="M1019.596522 54.33811c-2.14999-12.895937-5.372974-22.669889-9.619954-29.424857-3.070985-4.298979-11.821942-8.545958-26.201872-12.844937-14.37993-4.297979-32.085843-8.442959-53.22074-12.434939-21.135897-3.991981-44.675782-7.522963-70.671655-10.541949-1.99599-0.255999-3.991981-0.357998-5.936971-0.613997 0 1.688992 0.358998 3.172985 0.358999 4.861977 0 18.268911-0.972995 36.589821-2.865986 54.499733-2.251989 21.339896-5.833972 39.659806-10.950947 56.035727-12.844937 38.585812-35.361827 69.59666-65.809679 91.550553-20.4199 14.738928-43.703787 27.122868-69.289661 36.691821-19.958903 7.522963-40.837801 14.226931-61.921698 19.957902-9.824952 2.712987-19.139907 5.577973-27.787864 8.648958 12.128941 11.820942 22.56789 26.098873 31.113848 42.576792 5.731972 11.001946 10.849947 22.413891 15.301925 33.928834l0.306999 0.817996c13.304935 11.923942 25.279877 27.634865 34.849829 46.108775 10.029951 19.291906 16.169921 41.194799 18.779909 66.883674 2.507988 21.288896 1.689992 40.479802-2.404989 58.645713-3.376984 14.891927-8.084961 28.043863-14.379929 40.018805a669.63173 669.63173 0 0 1-4.553978 52.964741c-4.04298 28.503861-10.490949 56.649723-19.446905 85.359583-11.206945 35.923825-29.066858 69.186662-53.118741 98.867518-11.769943 15.044927-27.735865 29.987854-47.744767 44.367783-15.915922 11.462944-33.979834 21.595895-53.323739 30.550851 10.848947 7.164965 21.902893 13.459934 33.109838 18.064912 14.993927 6.14097 29.987854 10.23495 44.98178 12.383939 14.993927 2.14999 29.527856 3.223984 43.599788 3.223984 17.757913 0 35.361827-1.99599 52.812742-5.98697 17.398915-3.939981 33.774835-9.313955 49.07576-16.068922 15.300925-6.754967 28.912859-14.37993 40.8878-22.976888 11.923942-8.597958 21.237896-17.143916 27.992864-25.740874 15.914922-19.599904 27.530866-41.194799 34.84983-64.786684 7.368964-23.641885 12.587939-46.159775 15.607923-67.60067 3.069985-24.51288 4.604978-49.331759 4.604978-74.458636 4.298979-3.069985 7.675963-7.061966 10.081951-11.923942 2.455988-4.297979 4.451978-9.824952 5.98697-16.579919 1.534993-6.754967 1.688992-14.993927 0.459998-24.819879-1.227994-12.843937-3.836981-23.129887-7.828962-30.806849-3.939981-7.624963-8.392959-13.611934-13.304935-17.909913-5.475973-4.912976-11.309945-8.29096-17.449914-10.13295a760.839285 760.839285 0 0 0-9.160956-29.373857c-3.069985-7.983961-6.601968-15.812923-10.541948-23.489885-3.991981-7.623963-8.443959-13.611934-13.304935-17.909913-11.667943-9.211955-21.134897-16.989917-28.504861-23.437885-7.316964-6.447969-12.22994-17.296916-14.634929-32.649841-1.842991-9.159955-2.456988-18.52491-1.842991-28.042863 0.613997-9.466954 3.223984-18.985907 7.778962-28.452861 4.605978-9.518954 11.615943-18.575909 21.134897-27.122867 9.466954-8.596958 22.771889-16.272921 39.915805-22.976888 15.300925-6.13997 31.983844-11.667943 50.047756-16.579919 18.064912-4.912976 35.669826-10.541949 52.760742-16.989917 17.143916-6.447969 32.290842-14.43193 45.442778-23.898884 13.151936-9.517954 22.51689-22.56789 27.992864-39.096809 3.069985-9.773952 5.372974-21.902893 6.907966-36.282823a412.359987 412.359987 0 0 0 2.302989-43.702786c0-14.686928-1.074995-28.503861-3.223984-41.348798zM577.707679 657.579164c7.317964-23.641885 12.537939-46.158775 15.556924-67.60067 3.069985-24.51288 4.605978-49.331759 4.605978-74.458636 4.297979-3.069985 7.675963-7.061966 10.08095-11.974942 2.455988-4.246979 4.451978-9.773952 5.986971-16.528919 1.535993-6.754967 1.689992-14.993927 0.460998-24.819879-1.227994-12.894937-3.837981-23.129887-7.778962-30.805849-3.990981-7.624963-8.442959-13.612934-13.355935-17.911913-5.475973-4.911976-11.309945-8.28996-17.399915-10.13195-3.069985-10.387949-6.13997-20.213901-9.209955-29.373857-3.019985-7.982961-6.550968-15.812923-10.542948-23.489885-3.990981-7.623963-8.391959-13.611934-13.304935-17.909913-11.616943-9.211955-21.134897-16.989917-28.452861-23.437885-7.369964-6.447969-12.22994-17.296916-14.686929-32.649841-1.841991-9.159955-2.455988-18.52491-1.841991-28.042863 0.613997-9.466954 3.223984-18.985907 7.777962-28.452861 4.605978-9.517954 11.667943-18.575909 21.134897-27.121868 9.466954-8.597958 22.772889-16.273921 39.915805-22.977888 15.300925-6.13997 31.983844-11.667943 50.048756-16.579919 18.063912-4.912976 35.667826-10.541949 52.759742-16.989917 17.143916-6.447969 32.291842-14.43093 45.443778-23.898883 13.202936-9.517954 22.51589-22.51589 28.042863-39.096809 3.019985-9.773952 5.321974-21.902893 6.856967-36.282823a412.359987 412.359987 0 0 0 2.302989-43.701786c0-14.687928-1.073995-28.452861-3.223985-41.349799-2.14899-12.894937-5.321974-22.669889-9.619953-29.424856-3.069985-4.297979-11.769943-8.596958-26.149872-12.843937-14.43193-4.299979-32.137843-8.443959-53.27274-12.435939-21.083897-3.990981-44.674782-7.521963-70.671655-10.541949a2202.526245 2202.526245 0 0 0-78.501617-7.829962c-26.302872-2.14899-51.582748-3.837981-75.73763-5.065975-24.153882-1.227994-45.13478-1.841991-62.892693-1.841991-17.757913 0-38.379813 0.613997-61.971697 1.841991-23.539885 1.227994-47.847766 2.916986-72.974644 5.066975a2961.289541 2961.289541 0 0 0-74.816634 7.368964c-24.767879 2.711987-47.284769 5.628973-67.447671 8.699958-20.213901 3.069985-37.356818 6.13997-51.429749 9.209955-14.072931 3.070985-22.925888 6.14197-26.60987 9.211955-6.14197 4.861976-10.849947 19.906903-14.226931 45.03378C-0.817496-16.435545 0.565497 16.060297 6.655468 55.874102c3.069985 22.669889 12.127941 39.966805 27.121867 51.941747 14.993927 11.922942 32.444842 21.441895 52.299745 28.50386 19.906903 7.061966 40.529802 13.304935 61.972697 18.831908 21.441895 5.526973 40.375803 13.509934 56.905722 23.897884 12.894937 7.983961 22.669889 15.659924 29.373857 22.977888 6.754967 7.368964 11.666943 14.737928 14.737928 22.055892 3.019985 7.369964 4.553978 15.044927 4.553978 23.027887 0 7.931961-0.306999 16.836918-0.919996 26.61087-1.228994 14.123931-6.08997 25.279877-14.687928 33.569837-8.545958 8.28996-18.063912 16.734918-28.452861 25.279876-4.912976 4.299979-9.159955 10.28695-12.844938 17.911913a297.484547 297.484547 0 0 0-10.07995 23.488885c-3.070985 9.159955-6.14197 18.985907-9.211955 29.373857-4.247979 1.227994-8.545958 3.376984-12.844938 6.447968-3.684982 3.069985-7.624963 7.368964-11.923941 12.895937-4.297979 5.475973-7.982961 13.458934-11.001947 23.897883-3.684982 10.388949-5.065975 19.906903-4.144979 28.503861 0.919996 8.546958 2.609987 15.915922 5.065975 22.056893 2.404988 6.702967 6.396969 13.150936 11.923942 19.291905-0.614997 23.284886 0.613997 46.569773 3.683982 69.852659 2.404988 19.650904 6.856967 40.785801 13.304935 63.45669 6.396969 22.669889 16.017922 42.883791 28.913858 60.640704 11.616943 17.194916 24.61488 31.113848 38.99481 41.860796 14.37993 10.695948 29.066858 19.139907 44.060785 25.279876 14.993927 6.14097 29.987854 10.23495 44.98178 12.38394 14.993927 2.14999 29.527856 3.223984 43.600787 3.223984 17.757913 0 35.360827-1.99499 52.811743-5.986971 17.399915-3.939981 33.774835-9.313955 49.07576-16.068921 15.300925-6.754967 28.913859-14.37993 40.8888-22.976888 11.922942-8.596958 21.236896-17.142916 27.991864-25.739874 15.914922-19.599904 27.531866-41.195799 34.899829-64.787684z"  horiz-adv-x="1024" />

    
    <glyph glyph-name="hetong" unicode="&#58992;" d="M644.046-24.178H194.518c-36.585 0-66.518 29.869-66.518 66.368V765.626C128 802.131 157.933 832 194.518 832h496.087c19.955 0 43.237-9.959 56.54-23.233l146.336-149.33c13.303-13.275 23.286-39.824 23.286-56.418v-345.124c-33.262 26.55-76.497 43.143-123.061 43.143-109.75 0-199.55-89.603-199.55-195.796 0-49.775 19.956-96.235 49.89-129.42z m6.65 381.63c13.303 0 23.28 9.955 23.28 23.227 0 13.277-9.977 23.23-23.28 23.23H254.382c-13.302 0-23.278-9.954-23.278-23.23 0-13.272 9.976-23.227 23.278-23.227h396.312z m-396.313 311.94c-13.302 0-23.278-9.954-23.278-23.23 0-13.27 9.976-23.228 23.278-23.228H550.92c13.301 0 23.284 9.957 23.284 23.228 0 13.276-9.982 23.23-23.284 23.23H254.383z m592.539-59.734L697.258 758.992c-13.3 13.272-23.281 9.956-23.281-9.959v-96.235c0-36.503 29.933-66.368 66.518-66.368h96.448c19.955 0 23.282 9.956 9.979 23.228z m-49.89-73.008H254.383c-13.302 0-23.278-9.955-23.278-23.227 0-13.278 9.976-23.232 23.278-23.232h542.65c13.304 0.001 23.284 9.954 23.284 23.232 0 13.272-9.979 23.227-23.285 23.227z m-3.326-268.8C886.833 267.85 960 194.844 960 101.926S886.833-64 793.706-64c-93.122 0-166.292 73.008-166.292 165.926 0.001 92.918 73.17 165.924 166.292 165.924z m0-295.346c73.17 0 133.036 56.415 133.036 132.738 0 73.009-59.865 132.742-133.036 132.742-73.165 0-133.032-59.733-133.032-132.742 0-73.006 59.867-132.738 133.032-132.738z m-99.774 155.97c3.326 6.639 9.978 13.274 16.63 13.274l46.561 6.637 23.28 43.143c6.654 13.27 26.61 13.27 33.26 0l23.28-43.143 46.562-6.637c6.65-3.317 9.976-6.634 16.632-13.274 0-6.637 0-16.592-3.329-23.231l-36.584-33.18 3.326-46.461c0-6.64 0-9.959-6.653-16.594-3.325 0-3.325-3.317-9.977-3.317 0 0-3.325 0-6.651 3.317l-43.24 23.228-43.23-23.228c-6.655-3.317-16.63 0-19.957 3.318-3.327 3.319-6.654 9.955-6.654 16.594l9.98 49.775-36.586 33.188c-6.65 3.316-9.975 9.953-6.65 16.59z"  horiz-adv-x="1024" />

    
    <glyph glyph-name="huikuanfutou" unicode="&#58962;" d="M512 896C229.248 896 0 666.752 0 384s229.248-512 512-512 512 229.248 512 512S794.752 896 512 896z m154.624-799.744C617.6 71.104 564.864 58.88 512.64 58.88c-87.104 0-172.864 33.856-237.632 98.56-119.872 119.616-129.792 307.584-30.72 438.976h-18.496c-11.584 0-20.992 9.472-20.992 20.992s9.408 20.992 20.992 20.992h64.064c2.688 0 5.44-0.576 8-1.6 5.12-2.048 9.28-6.208 11.392-11.328 1.088-2.56 1.6-5.312 1.6-8v-64c0-11.584-9.408-20.992-20.992-20.992-11.648 0-21.056 9.472-21.056 20.992v5.504c-77.056-114.24-65.216-270.848 35.904-371.84 90.88-90.688 228.608-112.192 342.72-53.632 10.368 5.312 22.976 1.344 28.352-9.088 5.248-10.176 1.216-22.848-9.152-28.16z m-56.128 336.32c17.344 0 31.488-14.08 31.488-31.424 0-17.408-14.144-31.488-31.488-31.488h-66.24v-18.368h66.24c17.344 0 31.488-14.144 31.488-31.488s-14.08-31.552-31.488-31.552h-66.24v-48.896c0-17.344-14.144-31.488-31.488-31.488s-31.488 14.144-31.488 31.488v48.896h-66.304c-17.408 0-31.488 14.144-31.488 31.488s14.08 31.488 31.488 31.488h66.304V369.6h-66.304c-17.408 0-31.488 14.08-31.488 31.488 0 17.344 14.08 31.424 31.488 31.424h37.632l-74.304 99.008c-10.432 13.888-7.616 33.6 6.272 44.096 13.952 10.368 33.664 7.616 44.096-6.4l84.032-111.872 84.032 111.872c10.496 14.016 30.272 16.768 44.096 6.4 14.016-10.496 16.768-30.208 6.4-44.096l-74.368-98.944h37.632z m189.248-239.232c11.648 0 20.992-9.344 20.992-20.928a20.923 20.923 0 0 0-20.992-20.992h-64c-2.752 0-5.504 0.512-8.128 1.6-5.12 2.112-9.152 6.144-11.392 11.328-0.896 2.368-1.344 4.928-1.472 7.424v0.512l-0.128 64c0 11.584 9.344 20.992 20.992 20.992 11.648 0 21.12-9.344 21.12-20.992v-5.504c77.12 114.112 65.28 270.848-35.904 371.904-94.976 94.656-241.856 113.344-357.312 45.44-10.048-5.888-22.848-2.496-28.8 7.488-5.888 9.92-2.56 22.848 7.424 28.672 131.968 77.632 299.968 56.256 408.32-52.032 119.872-119.552 129.856-307.52 30.72-438.912h18.56z m0 0"  horiz-adv-x="1024" />

    
    <glyph glyph-name="yinlianzhifu" unicode="&#58994;" d="M237.076 129.372l75.065 322.36a9.231 9.231 0 0 1-2.156 0.251c-3.123 0-6.354-1.484-9.646-3.01-1.797-6.472-5.447-24.54-7.173-32.845-3.686-17.382-3.947-19.364-5.596-27.986l-1.09-1.137c-13.205 0.21-17.767 0.21-32.973-0.532l-0.707 1.224a2474.428 2474.428 0 0 1 7.496 31.093c6.39 28.027 7.884 38.769 9.666 53.013l1.183 0.865c14.822 2.043 18.406 2.478 34.442 5.776l1.342-1.521-2.407-8.945c2.709 1.618 5.269 3.262 8.08 4.695 1.602 0.784 3.246 1.429 4.879 1.997l38.154 163.845c8.387 35.687 43.94 64.681 79.488 64.681H201.6c-35.625 0-71.22-28.994-79.473-64.68L3.451 129.371c-8.295-35.61 13.84-64.563 49.387-64.563h233.554c-35.635-0.005-57.682 28.948-49.316 64.563zM213.745 397.21c-11.387-6.897-28.176-10.742-46.121-10.742-13.916 0-38.523 2.222-47.191 17.336-2.714 4.792-4.03 10.404-4.03 17.28l3.093 23.24 1.643 7.122 18.924 83.742s0.967 4.619 1.203 5.361c0.4-0.563 6.83-0.865 42.941-0.563-0.076-0.282-0.148-0.538-0.276-1.08-3.328-9.82-21.878-84.173-21.878-84.173-0.051-0.077-3.574-22.195-3.574-22.195l0.21-3.753c1.168-10.947 7.987-16.702 19.564-16.702 7.224 0 13.43 2.12 18.8 6.523 9.38 7.573 12.145 19.374 15.954 35.881 0.077 0.051 17.73 81.618 18.724 86.067 2.483-0.563 10.179-0.845 36.362-0.568a4.168 4.168 0 0 1-0.302-1.086c-3.271-10.045-22.374-87.265-22.374-87.265l-2.15-8.284c-4.588-16.184-9.79-34.442-29.522-46.141zM518.38 129.372l19.691 84.588h-8.381c-6.938 0-12.032 0.138-15.555 0.43-3.369 0.25-6.866 0-9.195 1.817-2.048 1.808-5.172 4.137-5.1 6.564 0.225 2.238 1.137 5.955 2.56 11.024l39.772 131.778h28.36L566.4 351.31s1.848 1.459 4.408 3.271l7.573 32.523c-5.08-0.046-10.158-0.22-18.565-0.635l-0.564 1.08c1.27 5.683 2.72 11.315 4.081 17.086l1.787 7.782c2.785 12.155 5.484 26.25 5.79 30.51 0.267 2.616 1.137 9.052-6.2 9.052-3.164 0-6.38-1.485-9.661-3.01-1.807-6.472-5.468-24.54-7.245-32.845-3.65-17.383-3.891-19.364-5.55-27.986l-1.09-1.137c-13.205 0.21-17.731 0.21-32.917-0.532l-0.696 1.224a3811.964 3811.964 0 0 1 7.465 31.093c6.359 28.027 7.849 38.769 9.6 53.013l1.177 0.865c14.828 2.043 18.432 2.478 34.463 5.775l1.275-1.52-2.345-8.945a145.74 145.74 0 0 0 8.069 4.695c7.48 3.697 15.99 4.808 20.526 4.808 3.768 0 7.71-0.61 11.085-2.391l38.047 163.43c8.32 35.681 43.909 64.676 79.57 64.676h-281.36c-35.548 0-71.101-28.995-79.488-64.68l-38.154-163.846c6.072 2.1 12.052 2.81 15.698 2.81 7.03 0 14.674-1.975 17.89-10.08 3.066-7.225 1.064-16.17-2.955-33.751l-2.058-8.925c-4.112-19.563-4.788-23.163-7.076-36.577l-1.526-1.147c-12.815 0.21-17.295 0.21-32.287-0.527l-0.583 1.08c1.326 5.683 2.718 11.315 3.988 17.086l1.843 7.782c2.77 12.155 5.515 26.25 5.806 30.51 0.23 2.325 0.917 7.629-4.08 8.801l-75.065-322.36c-8.366-35.61 13.681-64.563 49.316-64.563h281.314c-35.615 0-57.718 28.953-49.326 64.568z m9.482 225.362l-6.093-20.224h-45.481l-4.94-4.28c-2.11-2.028-2.832-1.178-5.607-2.688-2.586-1.311-7.987-3.85-15.002-3.85h-14.582l5.909 19.47h4.418c3.697 0 6.237 0.323 7.465 1.148 1.45 0.947 3.067 2.99 4.92 6.302l8.362 15.243h33.126l-5.796-11.116h33.3z m-119.42 107.07c-1.264-4.788-5.385-20.675-6.594-25.472-1.408-5.776-2.887-11.495-4.26-17.219-2.856-12.19-4.014-16.701-4.71-19.948-0.655-3.102-0.809-4.777-1.992-11.115l-0.696-0.553-0.706-0.522c-7.701 0.046-12.667 0.194-17.5 0.046-4.844-0.046-9.529-0.256-16.702-0.543l-0.435 0.543-0.461 0.614c1.925 6.989 3.036 9.457 4.004 11.914 0.967 2.463 1.91 4.972 3.63 12.063 2.217 9.206 3.645 15.683 4.587 21.356 0.973 5.156 4.424 20.695 5.095 25.682-0.702 3.732 1.536 8.043 6.61 11.494 8.053 5.555 19.968 6.81 26.808 2.821 4.475-2.662 5.463-6.948 3.323-11.161z m6.421-30.127c2.755 11.823 7.342 24.182 17.096 33.255 13.711 12.641 31.191 13.384 38.538 13.384 12.258 0 24.028-2.76 30.725-11.285 4.409-5.611 7.824-14.817 3.339-34.534-1.347-5.899-5.294-20.327-14.06-30.03-11.223-11.965-26.214-15.989-40.847-15.989-5.745 0-14.551 0.732-20.777 3.338-19.968 8.06-16.753 29.84-14.014 41.861zM484.5 213.985h-37.437c-2.96 0-5.263 0.415-8.51 1.147-3.169 0.789-4.54 2.212-5.954 4.373-1.377 2.201-3.425 3.957-2.022 8.632l10.736 35.6h-18.432l6.108 20.33h18.56l4.91 16.508h-18.452l5.878 19.384h81.203l-5.98-19.395H482.61l-5.058-16.496h33.228l-6.036-19.994h-33.229l-8.033-26.86c-0.988-2.969 7.864-3.363 11.054-3.363l16.63 2.273-6.667-22.139zM565.258 343.992l-6.789-22.543s1.982 1.761 5.53 3.896l4.347 18.652h-3.088z m-111.324 62.823c3.594 0 6.866 2.345 9.6 6.164 3.963 5.274 6.84 17.633 7.516 20.946 3.482 14.976 2.975 24.264-5.033 24.259-10.137 0-14.162-12.488-17.51-27.413-1.178-5.145-2.104-9.933-2.023-14.582 0.093-9.374 6.406-9.374 7.45-9.374z m81.49-162.873c-1.198-4.09-1.756-6.036-0.963-7.127 0.66-0.983 2.15-2.104 4.23-2.104l4.31 0.41 11.643 50.027h-6.722l-12.498-41.206z m20.475 68.998l-2.857-9.396h5.888l2.186 9.396zM774.482 406.487c3.579 0 9.84 2.33 12.452 6.037 1.408 1.817 2.662 4.592 3.737 7.495 1.09 4.357 2.202 8.694 3.22 13.082 0.672 3.02 1.291 5.683 1.813 8.176 0.727 10.174-2.672 16.128-9.108 16.128-10.163 0-14.152-12.451-17.541-27.038-1.157-5.202-2.13-9.99-2.079-14.577 0.22-9.303 6.513-9.303 7.506-9.303z m-175.084-102.8l3.011 9.253h-41.293l-2.186-9.396h34.355c4.746 0.615 5.724-0.076 6.113 0.144zM971.141 703.196H716.477c-35.66 0-71.25-28.994-79.57-64.676l-38.046-163.43c2.908-1.536 5.407-3.937 6.932-7.69 2.99-7.225 0.973-16.17-3.061-33.751l-2.028-8.925c-4.178-19.563-4.838-23.162-7.04-36.577L592.092 387a566.364 566.364 0 0 1-13.721 0.108l-7.573-32.522c3.144 2.232 7.378 5.007 10.84 6.415 6.24 2.35 20.377 4.46 20.377 4.46l45.854 0.215-15.6-52.066c-2.637-8.95-5.678-14.73-7.609-17.336-1.75-2.703-3.763-4.946-7.777-7.158-3.911-2.032-7.393-3.236-10.634-3.563-3.057-0.23-7.716-0.349-14.157-0.4H554.63l-11.643-50.027 15.17 1.438-6.63-22.6h-13.47l-19.692-84.587c-8.392-35.61 13.712-64.563 49.326-64.563h254.618c35.691 0 71.28 28.954 79.59 64.563l118.62 509.148c8.351 35.677-13.778 64.671-49.377 64.671z m-181.95-225.72c5.372-2.058 8.833-5.35 11.213-9.237 0.185 1.178 0.318 2.376 0.482 3.605l1.136 0.968c15.36 2.17 19.63 2.78 35.62 5.754l0.522-1.32c-2.923-12.079-5.852-24.172-8.647-36.306-5.898-25.457-8.06-38.35-10.312-51.63l-1.418-1.08c-15.432 0.122-19.87 0.122-34.191-0.492l-0.932 1.136c0.466 1.797 0.926 3.605 1.408 5.371-5.228-4.372-10.85-7.393-16.937-7.72a39.578 39.578 0 0 0-17.767 3.215c-19.87 7.746-16.67 29.465-13.91 41.333 2.698 11.802 7.346 24.06 17.08 33.075 13.737 12.54 29.803 15.99 36.654 13.328z m-176-90.875l24.853 102.374c0 0.067 9.846 46.04 9.846 46.04s0.747 3.624 1.178 5.616c4.551-0.538 15.651-0.66 43.36-0.348l10.64 0.148c21.688-0.148 40.371-0.338 49.797-13.537 3.728-4.94 5.023-11.238 5.023-17.654 0-4.864-0.748-9.79-1.73-13.88-3.82-16.655-12.473-30.418-24.981-39.726-18.406-13.609-42.02-13.609-62.853-13.609h-2.176c-1.552-0.804-3.052-2.862-3.052-2.862-0.266-0.727-5.058-20.823-5.058-20.823-0.062 0-5.673-27.28-6.64-31.867-4.138 0.404-14.066 0.404-38.206 0.128zM622.255 269c-1.116-3.902-2.104-6.866-5.048-9.37-3.067-2.611-6.764-5.381-15.283-5.381l-15.688-0.63-0.138-14.172c-0.21-4.03 0.87-3.6 1.5-4.26a5.064 5.064 0 0 1 2.073-1.229l4.977 0.21 15.032 0.901-6.164-20.659h-17.27c-12.093 0-21.033 0.261-24.002 2.622-2.883 1.812-3.298 4.162-3.22 8.074l1.12 55.178h27.52L587.29 269h6.63c2.248 0 3.768 0.235 4.71 0.819 0.82 0.65 1.45 1.52 1.91 2.882l2.678 8.822h21.652L622.254 269z m96.466-54.871h-29.532l2.012 6.59h-60.052l6.051 19.64h6.073l31.488 104.32 6.292 21.068h30.131l-3.143-10.64s8.043 5.781 15.641 7.737c6.288 1.68 37.381 2.473 47.795 2.693v0.041h1.87l1.602 0.031-0.01-0.03h28.718l0.358-12.023c-0.2-1.991 1.541-2.949 5.258-2.949h6.533l-6-19.799h-17.347c-15.042-1.09-20.751 5.381-20.403 12.642l-0.312 11.76-3.236-10.532H758.16l-31.047-102.743h8.34l-6.43-21.217h-8.341l-1.961-6.59z m133.228 91.259H819.67l-5.053-16.062h32.378l-5.33-17.649h-35.051l-6.216-7.418h14.213l3.451-22.221c0.369-2.197 0.44-3.64 1.122-4.562 0.701-0.845 4.992-1.198 7.444-1.198h4.306l-6.548-21.617h-10.932c-1.72 0-4.188 0.128-7.618 0.318-3.308 0.27-5.632 2.201-7.829 3.235-2.012 1.014-5.022 3.451-5.724 7.573l-3.41 22.149-15.938-21.816c-5.023-6.897-11.894-12.16-23.435-12.16h-22.29l5.806 19.287h8.54c2.468 0 4.66 0.957 6.231 1.807 1.649 0.676 3.129 1.51 4.741 3.922l23.179 32.707h-30.638l5.242 17.648h35.037l5.002 16.062h-34.58l5.928 19.901h96.297l-6.046-19.906z m20.408 61.23l-1.377-1.521h0.245l-12.467-21.289c-3.932-7.27-11.213-12.708-22.82-12.77l-19.86 0.308 5.78 19.215h3.85c2.028 0 3.523 0.128 4.67 0.691 0.963 0.333 1.69 1.112 2.53 2.228l6.988 11.151-0.015 0.087c9.856 15.007 12.329 21.438 22.625 38.523-1.792 19.062-2.662 25.236-4.198 37.755-0.85 7.45-2.028 15.114-2.93 22.656-1.883 15.406-1.448 13.21-3.358 22.999l-0.102 0.246c0.087 0.583 0.097 1.141 0.2 1.694l1.249 1.045c15.268 1.93 15.728 2.483 32.26 5.627l1.363-1.378 2.212-42.603c0.025-0.809 0.061-1.613 0.107-2.417 8.837 19.656 8.458 14.27 19.308 39.25l0.076-0.225c0.041 0.23 0.077 0.538 0.134 0.706l1.116 1.045c14.51 1.93 17.408 2.483 33.172 5.627l1.244-1.377c0-0.006-63.646-109.251-72.002-127.273zM608.768 332.892l3.348 11.1H568.34l-4.346-18.652a55.004 55.004 0 0 0 19.097 7.06c3.533 0.728 25.677 0.492 25.677 0.492z m90.803 136.73c8.515 4.157 15.11 12.78 17.383 22.932 2.488 11.172-1.06 19.804-9.631 23.102l-22.293 1.925-4.208 0.44-0.236-1.817-0.246-2.35c0.052 0.138-10.542-45.748-10.542-45.748l-0.44-2.304h5.73c8.852 0 17.438 0.277 24.483 3.82zM673.91 241.659h24.028l6.932 23.08h-24.002z m31.14 103.02l-7.962-26.261s8.919 4.02 13.819 5.376c4.93 1.295 12.35 1.766 12.35 1.766l5.76 19.118H705.05z m-20.189-66.607s9.165 4.66 14.03 6.14c4.935 1.141 12.41 2.047 12.41 2.047l5.863 19.108h-24.029l-8.274-27.295z"  horiz-adv-x="1024" />

    
    <glyph glyph-name="daijinquan" unicode="&#58995;" d="M4.992 538.944c0 20.288 3.456 34.752 9.984 43.52 6.656 8.64 21.312 12.864 44.288 12.864h141.312v-563.584h-60.672c-16.256 0-32.192 0.128-48 0.512-15.936 0.256-26.688 0.512-32.576 0.512-19.904-0.768-33.92 2.624-42.048 10.24-8.064 7.488-12.224 21.888-12.224 42.88v162.24c0 8.256 1.408 14.528 3.904 18.496 2.496 4.096 7.872 6.976 16 8.512 3.008 0 6.912 1.152 12.224 3.392 5.056 2.368 10.24 6.016 15.36 10.88s9.6 11.136 13.248 19.136c3.648 7.808 5.568 17.344 5.568 28.736 0 17.28-4.544 30.72-13.76 40.512-9.216 9.728-19.072 15.488-29.44 16.832-8 1.472-13.952 4.032-17.6 7.36-3.712 3.52-5.568 9.28-5.568 17.536V538.944z m91.712 107.072V675.392c0 14.912 5.824 28.928 17.152 41.664 11.328 12.736 23.744 19.2 36.992 19.2h152.576v-90.24H96.704z m900.672-244.544c-5.76-1.6-10.112-4.736-12.736-9.728-2.368-4.736-3.904-10.24-3.904-16.128 0-6.144 1.472-11.904 3.904-17.472 2.624-5.76 6.976-9.728 12.736-11.904 5.888-2.368 10.624-6.848 13.888-13.504 3.392-6.848 5.248-13.888 5.504-21.504a60.438 60.438 0 0 0-2.752-21.376c-2.24-6.72-5.504-11.648-9.856-14.72-14.72-9.024-22.016-19.136-22.016-30.4s7.232-22.656 22.016-33.728c3.008-2.368 5.632-6.528 8.256-12.352 2.496-6.144 3.776-12.096 3.776-18.24 0-6.016-1.344-11.136-4.352-15.616-3.008-4.608-8.128-6.848-15.488-6.848h-59.648c-4.224 0-6.72 0.384-6.976 1.28-0.384 0.768 0.128 1.984 1.472 3.776 1.472 1.984 3.264 4.032 5.504 6.4 2.24 2.24 4.032 4.864 5.632 7.872 3.648 10.496 3.648 19.52 0 27.008-3.776 7.616-9.856 13.888-18.88 19.136-5.888 3.008-10.24 7.744-12.608 14.272-2.624 6.272-3.648 12.864-3.264 19.648 0.256 6.848 1.472 12.736 3.776 17.984 2.24 5.376 5.632 9.152 9.856 11.392 6.016 2.24 10.368 6.4 13.248 12.352 3.008 5.888 4.48 12.352 4.48 19.136s-1.28 12.992-3.264 18.624c-2.24 5.632-5.504 9.6-10.112 11.776-5.76 3.136-10.368 7.488-13.76 13.632-3.328 5.76-4.928 12.48-4.928 20.032 0 7.616 1.344 14.848 4.352 22.016s7.616 12.992 14.272 17.472c4.608 3.008 8.256 7.104 11.136 12.352 3.136 5.376 4.48 10.88 5.12 16.896 0.384 6.08-1.024 11.84-3.392 17.472-2.624 5.696-7.232 10.304-13.888 14.08-7.232 3.712-12.736 9.28-16 16.32-3.264 7.168-4.992 14.592-4.992 22.016 0 7.616 1.728 14.656 4.992 21.504 3.264 6.656 7.872 12.032 13.76 15.872 12.48 6.656 19.52 15.936 20.48 27.52 1.152 11.648 0.256 22.464-2.752 32.064-2.368 7.616-6.656 14.336-13.12 20.352-6.72 6.08-15.232 9.024-25.472 9.024H370.944v89.024h622.208c5.12 0 9.344-1.92 12.992-5.632 3.776-3.776 6.272-8.256 7.36-13.568 1.152-5.248 0.768-10.688-1.152-16.32-1.728-5.568-5.248-10.432-10.496-14.208-4.48-3.776-8.384-8.512-11.648-14.592-3.392-6.016-4.992-12.16-5.632-18.624-0.256-6.464 0.768-12.736 2.88-19.2 2.112-6.336 6.144-11.072 12.096-14.08 8.256-4.48 14.272-10.688 18.24-18.496 4.096-7.872 6.208-15.744 6.208-23.552 0-8-2.112-15.296-6.144-22.016-4.032-6.848-9.6-11.776-17.024-14.656-8.128-3.136-14.144-7.36-17.728-12.992-3.776-5.696-5.632-11.904-6.144-18.56-0.384-6.784 1.024-13.376 4.224-19.712 3.392-6.464 8.768-12.032 16.128-16.512 7.36-4.352 12.864-10.368 16.128-17.984 3.264-7.424 4.608-14.912 4.352-22.528-0.384-7.488-2.24-14.4-5.504-20.864-3.392-6.272-8.192-9.92-14.912-10.688zM853.76 418.368c-8.768-2.24-15.616-6.656-20.48-12.864-4.736-6.528-7.232-12.992-7.744-19.904-0.256-6.72 1.6-13.504 5.504-20.352 4.224-6.656 10.112-11.52 18.368-14.528 7.232-3.136 12.864-7.616 16.512-13.504 3.776-6.144 5.76-12.48 6.144-19.264s-1.024-13.248-3.904-19.136c-2.88-6.016-7.36-10.624-13.248-13.504-18.368-9.152-28.032-20.032-28.608-32.768-0.896-12.736 6.144-22.848 20.864-30.528 6.656-3.008 12.032-7.616 16-14.016 4.096-6.4 6.272-13.12 6.72-20.352 0.384-6.976-1.024-13.504-4.032-19.008-2.88-5.888-7.744-9.6-14.272-12.032-8.896-2.24-15.616-6.272-20.608-12.352-4.608-5.888-7.104-12.352-7.488-19.008-0.512-6.976 1.344-13.632 5.504-20.352 4.032-6.848 10.496-12.48 19.264-17.024 6.016-3.008 10.112-7.744 12.736-14.016 2.624-6.528 3.52-12.608 2.88-18.624-0.896-6.016-2.88-11.52-6.272-16.256-3.264-4.992-7.872-7.36-13.888-7.36h-577.92V595.328h584.576c5.888 0 10.624-2.304 14.016-7.36 3.264-4.864 4.992-10.24 5.504-16.32 0.384-6.08-1.024-12.032-4.032-17.984-2.88-5.952-7.744-10.176-14.272-12.352-6.656-2.304-12.032-6.08-16.128-11.328-4.096-5.184-6.4-11.136-7.232-17.408-0.64-6.464 0.896-12.544 4.48-18.624 3.776-6.08 9.984-10.56 18.88-13.504 6.528-3.008 12.032-7.488 16-13.568s6.4-12.16 6.656-18.496c0.384-6.592-1.152-12.48-4.352-18.24-3.264-5.504-8.64-9.536-16.128-11.776zM587.392 342.72c-3.52 0-7.488 0.384-11.648 1.152-3.968 0.896-4.736 3.136-2.752 6.848 0.896 1.344 4.352 6.72 10.624 15.744a581.076 581.076 0 0 0 20.992 28.736c7.744 10.24 14.72 19.776 21.632 28.736 6.528 9.024 10.624 14.656 12.032 17.024 3.776 5.888 1.472 12.992-6.656 21.312-1.344 1.536-4.352 3.84-8.896 6.912-4.224 2.944-8.32 5.184-11.968 6.656-6.016 2.176-10.24 2.624-12.864 1.088-2.368-1.472-5.632-4.8-9.28-10.112-1.472-2.176-5.12-7.68-11.136-16.256-5.824-8.832-12.096-17.92-18.752-27.712-6.592-9.856-12.736-18.624-18.24-26.368-5.632-8-8.704-12.608-9.344-14.208-1.408-2.88-4.288-4.16-8.384-3.392-4.032 0.768-6.72 2.624-8.128 5.632-0.896 1.472-4.096 5.888-10.048 13.12-5.952 6.976-12.288 14.976-18.816 24.128s-12.992 17.344-19.264 25.344c-6.336 7.936-10.496 13.312-12.8 16.448-6.656 12.736-13.632 16.832-20.928 12.288-5.184-2.944-9.856-6.144-13.952-9.472-4.032-3.52-7.872-6.336-11.52-8.64-7.36-5.12-8.448-11.968-3.328-20.224 12.48-14.976 23.616-28.864 33.216-41.728 8.064-10.496 15.744-20.48 23.232-30.528 7.296-9.6 11.712-15.232 13.12-16.896 1.536-2.88 0-4.48-4.416-4.48H456c-3.648 0-9.088-0.128-16-0.512-7.104-0.384-13.568-0.256-19.52 0.512-5.824 0-10.688-1.344-14.4-4.48-3.584-2.88-4.736-6.656-3.2-11.136 0.704-3.136 1.088-7.616 1.088-13.504v-13.76c0-3.648 1.024-5.76 3.328-6.144 2.24-0.32 4.736-0.448 7.744-0.448h64.128c8.704 0 13.12-1.856 13.12-5.632v-21.376c0-3.904-0.64-5.76-2.176-5.76h-74.048c-4.352 0.768-7.232-0.384-8.768-3.264-1.408-3.136-2.496-6.528-3.328-10.24-0.768-3.904-0.768-7.36 0-10.624 0.832-3.52 1.024-6.4 1.024-8.512 0-9.856 4.8-14.72 14.4-14.72h66.368c3.84 0 5.952-0.512 6.592-1.6 0.704-1.152 1.152-3.648 1.152-7.36 0.768-3.776 1.024-10.496 0.512-20.224-0.32-9.856-0.576-16.192-0.576-19.328 0-8.256 4.8-12.352 14.336-12.352h35.456c5.888 0 8.896 1.856 8.896 5.76V204.16c0 7.616 3.392 11.392 9.856 11.392h9.984c5.12 0 11.008 0.128 17.152 0.64 6.4 0.256 12.352 0.512 18.112 0.512h14.4c10.24 0 15.616 3.776 15.616 11.136v24.896c0 6.848-3.648 10.24-11.008 10.24h-64.256c-7.232-1.6-11.136 0-11.136 4.48 0 2.112-0.128 4.992-0.512 8.384s-0.448 6.4-0.448 9.536c0 2.88 1.152 5.248 3.776 6.656 2.688 1.6 5.44 2.368 8.32 2.368h65.28c7.232 0 11.008 2.496 11.008 7.872v27.072c0 3.008-1.28 5.888-3.904 8.896-2.624 3.136-5.76 4.48-9.344 4.48h-37.632z m0 0"  horiz-adv-x="1024" />

    
    <glyph glyph-name="gantan" unicode="&#58996;" d="M509.214-126.927c-47.482 0-85.942 38.455-85.942 85.945 0 47.475 38.46 85.93 85.942 85.93 47.485 0 85.945-38.455 85.945-85.93 0-47.49-38.46-85.945-85.945-85.945z m0 280.859c-31.467 0-57 51.015-57 114.005l-57.005 512.999c0 62.987 51.017 114 114.005 114 62.99 0 114.005-51.012 114.005-114l-57.015-512.999c0-62.99-25.525-114.005-56.99-114.005z"  horiz-adv-x="1024" />

    
    <glyph glyph-name="piao" unicode="&#58997;" d="M575.04 500.032h74.432v-43.584H575.04v43.584zM480.64 500.032h59.904v-43.584H480.64v43.584zM480.64 565.376h59.904v-34.496H480.64v34.496zM379.008 500.032H448v-43.584h-68.992v43.584zM923.456 612.8v23.168c0 53.952-43.2 97.92-96.192 97.92H206.656c-53.056 0-96.192-43.968-96.192-97.92v-23.104h62.784v-27.008h-62.784v-115.968h62.784v-27.072h-62.784v-115.904h62.784v-27.008h-62.784v-116.032h62.784v-27.008h-62.784v-23.168c0-53.952 43.136-97.856 96.192-97.856h620.608c52.992 0 96.192 43.968 96.192 97.856v23.168h-62.784v27.008h62.784V299.904h-62.784v26.944h62.784V442.752h-62.784v27.136h62.784V585.792h-62.784V612.8h62.784z m-606.144-18.368c18.176-1.216 41.152-1.792 68.992-1.792h252.224c21.824 0 46.592 0.576 74.432 1.792v-30.848c-27.904 1.152-52.608 1.792-74.432 1.792H575.04v-34.496h110.656c-1.216-18.176-1.728-35.712-1.728-52.608 0-15.744 0.576-32.704 1.728-50.816H342.72c1.152 18.176 1.856 35.072 1.856 50.816 0 16.96-0.704 34.496-1.856 52.608H448v34.496h-65.344c-29.056 0-50.816-0.64-65.344-1.792v30.848z m361.152-199.616v-30.848c-21.76 1.216-41.728 1.792-59.968 1.792H408c-19.328 0-38.72-0.576-58.048-1.792v30.848c19.392-1.28 39.36-1.856 59.904-1.856h206.848c20.608 0 41.088 0.576 61.76 1.856z m-275.84-161.472c-16.96-12.096-37.504-25.408-61.696-39.936-6.08 10.88-15.744 20.48-29.056 28.992 12.096 4.864 26.944 11.776 44.48 20.864 17.472 9.088 34.752 23.296 51.712 42.624 8.448-9.6 19.328-19.328 32.704-28.992-8.512-3.648-21.248-11.52-38.144-23.552z m288.576-40c-20.608 15.744-53.888 34.496-99.84 56.256 9.664 8.448 16.96 18.752 21.76 30.784 49.6-25.344 84.032-43.52 103.488-54.464-10.944-9.536-19.392-20.48-25.408-32.576z m38.08 108.864c-22.976 1.28-42.944 1.856-59.904 1.856H535.104v-83.52c0-15.68-6.336-26.56-19.072-32.64s-28.736-10.304-48.064-12.736c-2.496 14.528-7.872 28.48-16.32 41.728 18.176-1.216 30.592-1.216 37.248 0 6.656 1.28 9.984 6.016 9.984 14.592v72.576H349.952c-16.96 0-32.064-0.64-45.376-1.856V333.12c13.312-1.28 28.416-1.792 45.376-1.792h319.424c16.96 0 36.864 0.576 59.904 1.792v-30.912z"  horiz-adv-x="1024" />

    
    <glyph glyph-name="jiantou" unicode="&#58998;" d="M106.951 420c23.395 0 42.36-18.964 42.36-42.36 0-23.39-18.965-42.358-42.36-42.358S64.593 354.25 64.593 377.64c0 23.396 18.964 42.36 42.358 42.36zM274.259 420c23.395 0 42.36-18.964 42.36-42.36 0-23.39-18.965-42.358-42.36-42.358S231.9 354.25 231.9 377.64c0 23.396 18.964 42.36 42.359 42.36zM441.566 420c23.395 0 42.36-18.964 42.36-42.36 0-23.39-18.965-42.358-42.36-42.358s-42.36 18.967-42.36 42.358c0.002 23.396 18.966 42.36 42.36 42.36zM608.875 420c23.394 0 42.36-18.964 42.36-42.36 0-23.39-18.965-42.358-42.36-42.358s-42.36 18.967-42.36 42.358c0 23.396 18.965 42.36 42.36 42.36zM952.288 406.721l-263.817 263.82c-12.096 12.088-35.304 8.486-51.843-8.058-16.538-16.54-20.149-39.754-8.057-51.846l226.64-226.642-226.633-226.637c-12.093-12.087-8.482-35.31 8.056-51.84 16.539-16.54 39.747-20.146 51.843-8.065l263.817 263.82c5.716 5.708 7.88 13.92 6.876 22.722 0.999 8.803-1.167 17.006-6.882 22.726z"  horiz-adv-x="1024" />

    
    <glyph glyph-name="shanghuguanli" unicode="&#59000;" d="M723.703-112.648c-113.875 0-206.255 92.348-206.255 206.255s92.38 206.255 206.255 206.255c113.874 0 206.255-92.348 206.255-206.255s-92.38-206.255-206.255-206.255zM108.737 668.95c196.485 282.243 392.97 282.243 589.455 0l14.655-21.711v-271.931C562.064 369.554 441.46 245.823 441.46 93.607c0-81.45 34.738-154.616 89.992-206.255H94.082V647.239l14.655 21.71zM756.27 223.873h-65.133v-97.7h-97.7v-65.133h97.7v-97.7h65.133v97.7h97.7v65.133h-97.7v97.7zM311.193 647.239c0.108-54.083 43.856-97.7 97.7-97.7 53.951 0 97.7 43.737 97.7 97.7l-0.544 9.987c-4.993 49.273-46.57 87.712-97.156 87.712-53.844 0-97.592-43.617-97.7-97.7z"  horiz-adv-x="1024" />

    
    <glyph glyph-name="zhanghao" unicode="&#59001;" d="M1104.517 896H124.26C55.756 896 0 841.063 0 773.532v-778.15c0-67.53 55.756-122.467 124.26-122.467h44.748a310.446 310.446 0 0 1 26.726-0.052 196.553 196.553 0 0 1 15.027 0.052l496.196-0.768a213.398 213.398 0 0 1 23.654 0.435h6.502l2.406-0.026c2.97 0 7.501 0.077 13.056 0.359h351.942c68.505 0 124.235 54.936 124.235 122.468V773.532C1228.752 841.063 1173.022 896 1104.517 896zM750.4-41.788h-19.635l-2.176-0.23-1.305-0.102-529.296 0.46h-1.664l-1.767-0.128h-23.09a113.278 113.278 0 0 0-18.15 2.407c3.174 43.852 23.474 105.009 72.728 157.974 40.242 43.264 113.815 94.821 235.695 94.821 122.135 0 196.4-51.66 237.18-95 49.714-52.837 70.424-113.406 73.854-156.976a131.454 131.454 0 0 0-22.374-3.226z m391.827 37.17c0-20.504-16.922-37.17-37.709-37.17h-244.91c-1.331 33.817-9.575 69.964-24.09 105.189a375.34 375.34 0 0 1-73.137 112.996c-52.53 55.807-147.3 122.315-300.641 122.315s-247.497-66.61-299.464-122.494A372.934 372.934 0 0 1 86.526 54.21V773.53c0 20.506 16.947 37.197 37.734 37.197h980.257c20.787 0 37.709-16.69 37.709-37.196v-778.15z m-677.8 729.408c-113.098 0-205.128-90.673-205.128-202.134s92.03-202.16 205.129-202.16c113.098 0 205.129 90.7 205.129 202.16s-92.03 202.134-205.13 202.134z m0-319.021c-65.38 0-118.602 52.453-118.602 116.887s53.196 116.862 118.603 116.862c65.38 0 118.577-52.428 118.577-116.862S529.808 405.77 464.427 405.77zM779.02 726.173h276.347V640.9H779.02v85.272z m0-170.544h276.347v-85.272H779.02v85.272z m0-170.544h158.538v-85.298H779.02v85.298z"  horiz-adv-x="1228" />

    
    <glyph glyph-name="yingyong" unicode="&#59002;" d="M364.302 292.735H71.077c-32.377 0-58.586-26.892-58.586-60.098v-300.515c0-33.23 26.209-60.122 58.586-60.122h293.225c32.353 0 58.61 26.892 58.61 60.122V232.637c0 33.206-26.257 60.098-58.61 60.098z m0-300.515c0-33.206-26.307-60.098-58.684-60.098H129.76c-32.45 0-58.684 26.892-58.684 60.098V172.54c0 33.206 26.234 60.098 58.684 60.098h175.857c32.377 0 58.684-26.892 58.684-60.098V-7.78zM994.1 665.88L786.816 878.404a57.611 57.611 0 0 1-82.893-0.025l-207.284-212.5a61.195 61.195 0 0 1-0.024-84.99l207.283-212.501a57.587 57.587 0 0 1 82.943-0.025l207.307 212.5a61.195 61.195 0 0 1-0.048 85.016z m-82.919-84.99l-124.365-127.51a57.611 57.611 0 0 0-82.893-0.025l-124.366 127.51a61.17 61.17 0 0 0-0.024 85.04l124.365 127.485a57.587 57.587 0 0 0 82.943-0.049l124.365-127.486a61.146 61.146 0 0 0-0.025-84.966zM364.301 833.713H71.078c-32.377 0-58.586-26.891-58.586-60.073V473.1c0-33.205 26.209-60.097 58.586-60.097h293.225c32.353 0 58.61 26.892 58.61 60.098V773.64c0 33.182-26.257 60.073-58.61 60.073z m0-300.49c0-33.23-26.306-60.122-58.683-60.122H129.76c-32.45 0-58.684 26.892-58.684 60.122V713.518c0 33.207 26.234 60.123 58.684 60.123h175.857c32.377 0 58.684-26.916 58.684-60.123v-180.294z m527.62-240.49H598.769c-32.353 0-58.61-26.89-58.61-60.097v-300.515c0-33.23 26.257-60.098 58.61-60.098h293.152c32.45 0 58.684 26.868 58.684 60.098V232.637c0 33.206-26.234 60.098-58.684 60.098z m0-300.514c0-33.206-26.234-60.098-58.611-60.098H657.453c-32.45 0-58.684 26.892-58.684 60.098V172.54c0 33.206 26.234 60.098 58.684 60.098H833.31c32.377 0 58.61-26.892 58.61-60.098V-7.78z"  horiz-adv-x="1024" />

    
    <glyph glyph-name="zhanghaoguanli" unicode="&#59003;" d="M1047.622-127.953H116.038C51.968-127.953 0-73.472 0-6.237V774.307C0 841.519 51.968 896 116.038 896h931.584c64.093 0 116.038-54.481 116.038-121.693v-780.544c0-67.235-51.945-121.716-116.038-121.716z m38.074 849.943c0 58.205-45.01 105.402-100.492 105.402H178.48c-55.483 0-100.492-47.197-100.492-105.402v-675.933c0-58.205 45.01-105.402 100.492-105.402h806.725c55.483 0 100.492 47.197 100.492 105.402V721.99z m-94.767-396.498H678.516c-20.852 0-37.748 17.548-37.748 39.168 0 21.644 16.896 39.168 37.748 39.168H990.93c20.83 0 37.726-17.524 37.726-39.168 0-21.62-16.896-39.168-37.726-39.168z m0 157.161H678.516c-20.852 0-37.748 17.524-37.748 39.168s16.896 39.168 37.748 39.168H990.93c20.83 0 37.726-17.524 37.726-39.168s-16.896-39.168-37.726-39.168zM677.82 246.691h158.486c20.457 0 37.05-17.85 37.05-39.866 0-21.993-16.593-39.843-37.05-39.843H677.818c-20.457 0-37.05 17.85-37.05 39.843 0 22.016 16.593 39.866 37.05 39.866zM348.834 128.209c-102.772 0-213.83 13.312-213.83 71.936V216.25c0 43.008 75.8 86.598 140.404 110.5 4.655 1.768 26.95 14.195 14.476 47.662-31.977 33.443-56.157 87.621-56.157 140.94 0 81.687 52.76 124.485 114.502 124.485 61.673 0 114.758-42.798 114.758-124.486 0-53.108-24.32-107.078-56.11-140.59h0.162c-12.195-37.958 7.33-46.988 10.403-48.012 67.793-22.947 143.942-66.188 143.942-110.499v-16.105c0-58.624-109.638-71.936-212.55-71.936z"  horiz-adv-x="1163" />

    
    <glyph glyph-name="zuobiao" unicode="&#59004;" d="M512 896C299.903 896 127.956 725.675 127.956 515.627c0-210.09 378.752-644.734 384.042-643.582 8.832 2.005 384 433.492 384 643.582C895.998 725.76 724.051 896 511.998 896z m0-585.172c-97.878 0-177.238 78.592-177.238 175.53 0 96.981 79.36 175.573 177.237 175.573s177.194-78.592 177.194-175.573c0-96.938-79.317-175.53-177.194-175.53z"  horiz-adv-x="1024" />

    
    <glyph glyph-name="xinjituankaihu" unicode="&#59005;" d="M915.302 131.402c68.036-27.26 108.652-61.574 108.652-98.891 0-88.607-229.252-160.511-512.022-160.511C229.207-128 0-56.096 0 32.51c0 37.318 40.549 71.632 108.63 98.892-16.315-11.514-25.235-23.938-25.235-36.885 0-60.232 191.867-109.017 428.537-109.017 236.76 0 428.582 48.785 428.582 109.017 0 12.947-8.875 25.371-25.212 36.885zM260.608 860.958c51.38 0 93.02-42.369 93.02-94.636 0-52.267-41.64-94.66-93.02-94.66-51.403 0-93.066 42.393-93.066 94.66s41.663 94.636 93.066 94.636z m501.305 0c-51.357 0-93.043-42.369-93.043-94.636 0-52.267 41.686-94.66 93.043-94.66 51.425 0 93.089 42.393 93.089 94.66s-41.664 94.636-93.089 94.636z m-91.951-544.289v-249.458h65.624l26.19 174.846 26.26-174.846h71.426V343.52a90.199 90.199 0 0 1 47.762 79.754V564.603c0 49.445-39.73 89.858-88.356 89.858H710.169a86.32 86.32 0 0 1-20.433-2.435 144.9 144.9 0 0 0 23.005-78.549v-153.843a145.174 145.174 0 0 0-42.779-102.965zM513.502 895.977c55.953 0 101.28-46.123 101.28-103.01 0-56.818-45.327-102.987-101.28-102.987-55.908 0-101.258 46.17-101.258 102.987 0 56.887 45.35 103.01 101.258 103.01zM613.576 332.62a98.368 98.368 0 0 1 52.45 87.014V573.477c0 53.746-43.28 97.754-96.161 97.754H451.54c-52.904 0-96.16-44.008-96.16-97.754v-153.843c0-37.614 21.184-70.448 52.016-86.809v-300.633h77.753l28.534 190.296 28.557-190.296h71.335V332.62z m-261.04-15.95a145.333 145.333 0 0 0-42.733 102.964V573.477c0 28.944 8.42 55.908 23.005 78.549a86.171 86.171 0 0 1-20.434 2.435H203.676c-48.627 0-88.356-40.413-88.356-89.858v-141.329c0-34.632 19.455-64.782 47.807-79.754V67.21h71.404l26.236 174.846 26.19-174.846h65.58V316.67z"  horiz-adv-x="1024" />

    
    <glyph glyph-name="xiaoxi" unicode="&#59006;" d="M512.023 896C229.935 896 0 701.882 0 460.753c0-139.1 77.242-266.845 204.73-348.183l-0.046-240.57 224.86 159.162-0.674 0.093h0.791l-0.116-0.093a606.686 606.686 0 0 1 82.478-5.632C794.065 25.53 1024 219.601 1024 460.753 1024 701.883 794.065 896 512.023 896z m213.97-545.955c0-14.313-8.634-25.902-19.27-25.902H322.025c-10.636 0-19.247 11.59-19.247 25.902v10.706c0 14.312 8.611 25.902 19.247 25.902h384.698c10.636 0 19.27-11.59 19.27-25.902v-10.706z m68.422 194.28c0-14.312-11.404-25.902-25.484-25.902H259.817a25.693 25.693 0 0 0-25.484 25.903V555.03c0 14.313 11.404 25.903 25.484 25.903H768.93c14.08 0 25.484-11.59 25.484-25.903v-10.705z"  horiz-adv-x="1024" />

    
    <glyph glyph-name="yiyoujituankaihu" unicode="&#59007;" d="M1047.32 521.286H920.484V395.31h-43.916V521.286H750.383V565.9h126.185V691.759h43.916v-125.976h126.836v-44.497zM461.08 896C348.207 896 256.722 798.092 256.722 663.04c0-134.959 91.485-267.73 204.358-267.73s204.358 132.865 204.358 267.823C665.438 798.092 573.953 896 461.08 896z m131.56-540.602L458.334-52.108 329.426 355.398c-68.631 0-127.488-22.691-175.476-62.487C68.073 221.975 16.478 96.465 3.399-51.433a874.124 874.124 0 0 1-3.398-76.52h922.275c0 266.938-117.179 483.35-329.635 483.35z m-200.843-74.1l69.283-229.563 69.4 229.562-69.4 76.521-69.283-76.52z"  horiz-adv-x="1047" />

    
    <glyph glyph-name="tianjiadianpu" unicode="&#59008;" d="M1190.698 134.501c0-141.24-112.355-256.357-253.19-262.215-1.81-0.095-3.596-0.286-5.43-0.286H173.151c-57.106 0-103.162 45.723-103.162 104.234V195.655c0 21.957 18.432 40.222 40.532 40.222 22.099 0 40.53-18.265 40.53-40.222v-219.421c0-10.979 9.217-21.957 22.1-21.957H734.09a260.953 260.953 0 0 0 16.598 376.427 229.78 229.78 0 0 0-23.075 24.029c-42.365-51.2-101.305-80.444-167.627-80.444a229.662 229.662 0 0 0-167.626 80.444c-42.365-51.2-103.162-80.444-169.46-80.444-40.532 0-75.538 9.145-105.02 25.6C44.2 340.111 0 415.077 0 499.212c0 23.766 3.691 45.699 11.05 69.465 0 1.834 1.833 3.668 1.833 5.501L116.045 819.2C130.786 866.733 174.985 896 230.257 896H893.38c55.273 0 101.329-31.077 117.903-80.467l93.946-239.521c0-3.667 1.834-5.501 1.834-9.145 7.382-21.956 11.05-45.722 12.907-69.489a225.185 225.185 0 0 0-50.485-142.264c72.918-46.747 121.213-128.048 121.213-220.613zM750.4 174.485c-17.336 0-31.791-14.36-31.791-31.577 0-17.218 14.455-31.554 31.791-31.554h144.075v-143.027c0-17.217 14.455-31.553 31.792-31.553s31.791 14.336 31.791 31.553V111.354h144.075c17.36 0 31.791 15.765 31.791 31.554 0 17.217-14.431 31.577-31.791 31.577H958.059V317.488c0 17.217-15.884 31.577-31.791 31.577-17.337 0-31.792-14.36-31.792-31.577v-143.003H750.4z m279.29 370.426c-1.833 1.834-1.833 3.667-1.833 5.5l-93.946 237.712c-7.359 21.932-29.458 25.6-42.365 25.6H228.423c-31.315 0-36.84-20.123-38.697-25.6L90.255 548.578c-1.834-1.833-1.834-1.833-1.834-3.667a142.265 142.265 0 0 1-7.382-47.533c0-53.033 29.482-100.566 75.538-126.166 18.408-9.145 40.531-14.646 66.322-14.646 49.723 0 93.922 25.6 119.712 67.656 1.858 5.5 5.525 10.978 11.05 18.289 16.598 20.123 58.963 21.956 77.372-1.834 3.69-3.643 7.382-10.954 9.216-14.622C466.039 384 512.095 358.4 559.985 358.4s92.089 25.6 117.88 67.655c1.857 3.668 5.524 10.979 11.049 16.456 7.382 9.144 22.123 16.455 38.698 16.455 20.265 0 31.315-9.144 38.673-16.455 5.525-5.477 9.216-12.788 11.05-16.456a142.86 142.86 0 0 1 49.08-48.485 265.454 265.454 0 0 0 162.626 11.907c30.577 26.458 49.51 66.56 48.033 107.901 0 16.456-1.858 32.911-7.382 47.533z m-154.719-18.29H230.257c-22.1 0-40.531 18.29-40.531 40.246 0 21.933 18.432 40.222 40.531 40.222h644.715c22.1 0 40.532-18.289 40.532-40.222 0-20.122-18.432-40.245-40.532-40.245z"  horiz-adv-x="1190" />

    
    <glyph glyph-name="wodeshanghu" unicode="&#59009;" d="M1099.276 570.493l-82.844 220.734a55.746 55.746 0 0 1-0.45 1.15C980.243 877.392 927.595 896 910.312 896c-1.898 0-3.771-0.15-5.595-0.475H216.09c-20.23 0-42.434-9.84-62.514-27.697-20.13-17.908-36.614-42.509-47.703-71.131C43.957 642.447 8.567 541.671 0.674 497.189a31.844 31.844 0 0 1-0.25-9.24l0.75-6.37c-0.4-3.046-0.974-7.192-0.974-11.963 0-71.505 46.055-132.47 110.117-154.923v-322.96C110.317-74.277 164.464-128 231-128h664.826c66.535 0 120.682 53.723 120.682 119.733V315.667c62.664 23.202 107.42 83.443 107.42 153.95 0 2.522-0.2 4.695-0.424 6.418 3.022 25.4-4.57 54.897-24.227 94.458z m-203.45-634.93H230.998a56.445 56.445 0 0 0-56.57 56.17V305.652c50.95 1.848 90.687 18.432 118.21 49.376a135.368 135.368 0 0 1 14.86 20.23c3.123-4.17 6.345-8.241 9.716-12.163 31.969-37.163 71.88-57.618 112.39-57.618 44.832 0 84.093 12.288 113.615 35.54 6.968 5.495 13.262 11.489 18.831 17.932 5.595-6.443 11.889-12.437 18.857-17.932 29.52-23.252 68.783-35.54 113.614-35.54 40.235 0 79.347 17.008 110.142 47.928a190.564 190.564 0 0 1 13.412 15.01 131.56 131.56 0 0 1 10.914-13.886c28.173-31.22 69.657-47.654 123.405-48.977v-313.819a56.445 56.445 0 0 0-56.57-56.17z"  horiz-adv-x="1124" />

    
    <glyph glyph-name="shouji" unicode="&#59010;" d="M999.382473 121.486623c40.273455-48.338346 21.928703-121.505355 8.019892-135.712163-13.907812-14.419805-12.925825-21.331711-79.565923-81.827892-67.109092-61.008174-201.327275-19.283739-262.249451 0-60.923175 19.326738-226.540934 125.258305-379.658861 270.826334C130.80523 322.299905 50.555316 506.092417 17.74776 605.924066c-32.765557 100.130645-12.286834 136.308155 0 170.140697C29.992594 809.940305 52.43329 838.651916 118.902391 876.7924c66.298103 38.226483 90.317778 9.129876 107.382546 0 16.97977-9.001878 91.256765-74.018998 116.982417-135.412167 25.597654-61.435168 13.395819-100.940634-6.356914-119.584382-19.709733-18.643748-33.789543-35.709517-50.129322-47.27036-16.339779-11.391846-19.795732-27.859623-17.363765-59.729191 2.303969-31.954567 117.49441-156.487882 140.233102-179.52557 22.654693-23.038688 172.614664-178.203588 224.663959-190.107427 52.134294-11.731841 70.991039 10.922852 76.665963 17.065769 5.630924 6.057918 26.151646 34.00254 49.360332 53.414277 23.379684 19.283739 85.752839 13.993811 101.154631 3.156957 15.443791-10.879853 97.570679-48.721341 137.887133-97.314683z"  horiz-adv-x="1024" />

    
    <glyph glyph-name="wo1" unicode="&#59011;" d="M512-128C229.236-128 0 101.236 0 384S229.236 896 512 896s512-229.236 512-512-229.236-512-512-512z m308.27 242.944c-15.778 108.59-87.994 199.005-186.088 240.71a216.832 216.832 0 0 1 95.883 179.968c0 119.994-97.629 217.25-218.065 217.25-120.436 0-218.065-97.256-218.065-217.25a216.762 216.762 0 0 1 95.883-179.945c-98.094-41.728-170.31-132.12-186.089-240.733a31.116 31.116 0 0 1 27.904-44.847c17.199 0 31.14 13.894 31.14 31.046v-31.046c0 137.123 111.592 248.274 249.227 248.274s249.228-111.15 249.228-248.274v31.046c0-17.152 13.94-31.046 31.139-31.046a31.116 31.116 0 0 1 27.904 44.847zM512 380.463c-86.016 0-155.764 69.469-155.764 155.159 0 85.713 69.748 155.182 155.764 155.182s155.764-69.469 155.764-155.182c0-85.69-69.748-155.16-155.764-155.16z"  horiz-adv-x="1024" />

    
    <glyph glyph-name="paishe" unicode="&#59012;" d="M1087.688-128H103.199C47.63-128 0-80.721 0-25.6V667.573c0 55.146 47.628 102.4 103.2 102.4h222.307l63.513 102.4C389.02 888.133 428.731 896 444.59 896h309.648c15.86 0 55.571-7.867 55.571-23.627l63.513-102.4h222.308c55.57 0 103.2-47.254 103.2-102.4V-25.6c-7.943-55.121-55.571-102.4-111.142-102.4zM595.444 667.573c-182.597 0-333.45-149.654-333.45-330.827S412.847 5.92 595.444 5.92c182.596 0 333.449 149.654 333.449 330.827S778.04 667.573 595.443 667.573z m0-567.146c-127.026 0-230.25 102.4-230.25 228.452 0 133.894 103.224 236.294 230.25 236.294 127.025 0 230.25-102.4 230.25-228.427 0-133.92-103.225-236.32-230.25-236.32z"  horiz-adv-x="1199" />

    
    <glyph glyph-name="lianxiren1" unicode="&#59013;" d="M969.14904-128H286.48204a128 128 0 0 0-128 128V768a128 128 0 0 0 128 128H969.15004a128 128 0 0 0 128-128v-768a128 128 0 0 0-128-128z m-84.358 604.745c0 132.974-108.422 240.762-242.2 240.762-133.779 0-242.225-107.788-242.225-240.762 0-89.77 49.542-167.911 122.831-209.335a336.896 336.896 0 0 1-182.589-165.156h5.925c0-14.775 12.068-26.746 26.94-26.746a26.819 26.819 0 0 1 26.893 26.746h1.853A282.478 282.478 0 0 0 642.59004 236.008c101.718 0 190.61-53.614 240.372-133.754h1.829a26.819 26.819 0 0 1 26.916-26.746 26.819 26.819 0 0 1 26.917 26.746h5.973A337.189 337.189 0 0 1 761.98404 267.41c73.265 41.424 122.807 119.564 122.807 209.335z m-430.568 0c0 103.424 84.31 187.27 188.367 187.27 104.034 0 188.368-83.846 188.368-187.27S746.62404 289.5 642.59004 289.5c-104.057 0-188.367 83.822-188.367 187.246zM30.48304-26.99a48.347 48.347 0 0 0-16.19 10.801A46.933 46.933 0 0 0 0.00604 18.286V140.19a48.762 48.762 0 0 0 30.476 45.154 48.762 48.762 0 0 0 30.476-45.154v-121.904c0-13.459-4.754-24.966-14.287-34.475-4.876-4.876-10.289-8.411-16.189-10.8z m-18.286-3.486c6.582 0 12.653 1.219 18.285 3.486 5.632-2.267 11.703-3.486 18.286-3.486H12.19704z m36.571 219.428a48.518 48.518 0 0 1-18.286-3.608 48.518 48.518 0 0 1-18.285 3.608h36.571z m-18.286 101.01a48.347 48.347 0 0 0-16.189 10.801A46.933 46.933 0 0 0 0.00604 335.238V627.81a48.762 48.762 0 0 0 30.476 45.153 48.762 48.762 0 0 0 30.476-45.153v-292.572c0-13.458-4.754-24.966-14.287-34.475-4.876-4.876-10.289-8.411-16.189-10.8z m-18.285-3.486c6.582 0 12.653 1.22 18.285 3.487 5.632-2.268 11.703-3.487 18.286-3.487H12.19704z m36.571 390.095a48.518 48.518 0 0 1-18.286-3.608 48.518 48.518 0 0 1-18.285 3.608h36.571z"  horiz-adv-x="1097" />

    
    </font>
</defs>
</svg>
